<?xml version="1.0" standalone="no"?>
<!DOCTYPE svg PUBLIC "-//W3C//DTD SVG 1.1//EN" "http://www.w3.org/Graphics/SVG/1.1/DTD/svg11.dtd" >
<svg xmlns="http://www.w3.org/2000/svg">
<metadata>Generated by IcoMoon</metadata>
<defs>
<font id="icomoon" horiz-adv-x="1024">
<font-face units-per-em="1024" ascent="960" descent="-64" />
<missing-glyph horiz-adv-x="1024" />
<glyph unicode="&#x20;" horiz-adv-x="512" d="" />
<glyph unicode="&#xe900;" glyph-name="app_zkLink" d="M382.73 872.411l-126.71-73.59-0.437-135.668-0.436-135.669-232.96-134.745v-295.921l127.104-73.582c69.907-40.471 127.88-73.583 128.829-73.583s53.596 30.037 116.993 66.748c69.87 40.46 116.439 66.441 118.242 65.97 1.636-0.428 54.233-30.465 116.881-66.748s114.686-65.97 115.638-65.97c0.952 0 58.928 33.112 128.835 73.583l127.104 73.582v295.847l-232.96 134.817-1.706 272.016-126.843 73.424c-69.764 40.384-127.748 73.347-128.854 73.252s-59.029-33.288-128.72-73.763zM640 822.655c43.648-25.191 80.326-46.675 81.506-47.742 1.69-1.528 2.053-25.203 1.707-111.392l-0.44-109.452-103.253 59.837c-56.789 32.911-104.482 60.177-105.983 60.591-1.513 0.418-49.436-26.289-107.52-59.918l-104.79-60.67-0.44 109.507c-0.241 60.23 0.143 110.076 0.854 110.769s48.379 28.512 105.93 61.819l104.637 60.557 24.216-14.052c13.319-7.729 59.928-34.663 103.576-59.854zM606.731 570.659c52.16-30.158 94.616-55.018 94.346-55.243-5.103-4.258-188.241-108.439-189.96-108.061-5.917 1.302-188.052 108.168-186.259 109.286 2.309 1.439 186.111 108.473 186.662 108.699 0.206 0.084 43.051-24.522 95.211-54.681zM361.856 170.821c58.208-33.686 105.514-61.567 105.123-61.958s-43.030-25.204-94.752-55.141l-94.040-54.43-210.774 121.9v247.032l187.734 108.693 0.437-122.425 0.438-122.425 105.834-61.246zM395.093 422.424c50.688-29.308 92.742-53.827 93.453-54.487s1.095-50.461 0.853-110.67l-0.439-109.47-187.733 108.7-0.439 110.367c-0.242 60.701 0.142 110.024 0.853 109.607s42.764-24.739 93.452-54.047zM722.359 256.616c-1.069-1.064-149.364-87.318-179.212-104.236l-8.96-5.079v220.169l188.586 109.184 0.44-109.376c0.241-60.156-0.143-109.954-0.854-110.662zM866.987 420.17l89.6-51.945v-246.908l-210.762-122.032-94.046 54.434c-51.726 29.938-94.338 54.725-94.695 55.081s46.954 28.205 105.134 61.885l105.782 61.236v245.18l4.693-2.493c2.582-1.372 45.014-25.869 94.294-54.438z" />
<glyph unicode="&#xe901;" glyph-name="app_okex" d="M853.333 533.333c12.8 0 21.333 8.533 21.333 21.333v213.333c0 12.8-8.533 21.333-21.333 21.333h-213.333c-12.8 0-21.333-8.533-21.333-21.333v-213.333h-213.333v213.333c0 12.8-8.533 21.333-21.333 21.333h-213.333c-12.8 0-21.333-8.533-21.333-21.333v-213.333c0-12.8 8.533-21.333 21.333-21.333h213.333v-213.333h-213.333c-12.8 0-21.333-8.533-21.333-21.333v-213.333c0-12.8 8.533-21.333 21.333-21.333h213.333c12.8 0 21.333 8.533 21.333 21.333v213.333h213.333v-213.333c0-12.8 8.533-21.333 21.333-21.333h213.333c12.8 0 21.333 8.533 21.333 21.333v213.333c0 12.8-8.533 21.333-21.333 21.333h-213.333v213.333h213.333z" />
<glyph unicode="&#xe902;" glyph-name="app_wallet_tick" d="M640 861.867h-256c-230.4 0-332.8-89.6-332.8-298.667v-243.2c0 0 0 0 0-4.267-29.867-34.133-42.667-81.067-42.667-123.733 0-38.4 8.533-72.533 29.867-102.4 34.133-59.733 102.4-98.133 174.933-98.133 46.933 0 89.6 17.067 123.733 42.667 0 0 4.267 0 4.267 0h298.667c230.4 0 332.8 89.6 332.8 298.667v230.4c0 209.067-102.4 298.667-332.8 298.667zM755.2 379.733c-46.933 0-81.067 38.4-81.067 81.067 0 46.933 38.4 81.067 81.067 81.067h153.6v-166.4h-153.6zM213.333 51.2c-51.2 0-93.867 25.6-119.467 68.267-12.8 21.333-21.333 46.933-21.333 72.533 0 42.667 17.067 81.067 51.2 106.667 25.6 21.333 55.467 29.867 85.333 29.867 76.8 0 136.533-64 136.533-136.533 0-25.6-8.533-51.2-21.333-72.533-8.533-12.8-17.067-21.333-25.6-34.133-21.333-21.333-51.2-34.133-85.333-34.133zM640 93.867h-247.467c17.067 29.867 25.6 64 25.6 93.867 0 110.933-89.6 204.8-204.8 204.8-34.133 0-68.267-8.533-93.867-25.6v196.267c0 174.933 68.267 234.667 264.533 234.667h256c179.2 0 251.733-51.2 264.533-192h-149.333c-81.067 0-145.067-64-145.067-145.067s64-145.067 145.067-145.067h149.333c-4.267-162.133-76.8-221.867-264.533-221.867zM260.267 256l-68.267-64-21.333 21.333c-12.8 12.8-34.133 12.8-46.933 0s-12.8-34.133 0-46.933l42.667-42.667c4.267-4.267 12.8-8.533 21.333-8.533s17.067 4.267 21.333 8.533l89.6 85.333c12.8 12.8 12.8 34.133 0 46.933-8.533 12.8-25.6 12.8-38.4 0zM486.4 716.8h-230.4c-17.067 0-34.133-12.8-34.133-34.133s17.067-29.867 34.133-29.867h230.4c17.067 0 34.133 12.8 34.133 34.133s-17.067 29.867-34.133 29.867zM776.533 494.933h-12.8c-17.067 0-34.133-12.8-34.133-34.133s12.8-34.133 34.133-34.133h12.8c17.067 0 34.133 12.8 34.133 34.133s-17.067 34.133-34.133 34.133z" />
<glyph unicode="&#xe903;" glyph-name="app_binance" d="M603.473 122.861v-107.194l-92.794-54.972-90.065 54.972v107.194l90.065-54.972 92.794 54.972zM106.667 494.007l90.064-54.972v-184.198l155.61-93.453v-107.194l-245.675 145.675v294.142zM914.647 494.007v-294.142l-248.403-145.675v107.194l155.61 93.453v184.154l92.794 55.017zM666.244 639.682l92.794-54.972v-107.194l-155.61-93.453v-186.946l-90.063-54.972-90.065 54.972v186.901l-161.024 93.498v107.194l92.794 54.972 155.61-93.451 155.565 93.451zM262.276 400.512l90.065-54.972v-107.196l-90.065 54.972v107.196zM759.038 400.512v-107.196l-90.063-54.972v107.196l90.063 54.972zM196.731 733.135l92.794-54.972-92.794-54.972v-107.196l-90.064 54.972v107.196l90.064 54.972zM824.54 733.135l92.794-54.972v-107.196l-92.794-54.972v107.196l-90.065 54.972 90.065 54.972zM510.635 733.135l92.794-54.972-92.794-54.972-90.063 54.972 90.063 54.972zM510.635 917.333l248.403-145.675-90.063-54.972-155.61 93.452-158.295-93.497-90.065 54.972 245.63 145.719z" />
<glyph unicode="&#xe904;" glyph-name="app_folders_cancel" d="M844.8 686.933v29.867c0 98.133-51.2 149.333-149.333 149.333h-375.467c-170.667 0-221.867-51.2-221.867-221.867v-384c0-170.667 51.2-221.867 221.867-221.867h384c170.667 0 221.867 51.2 221.867 221.867v230.4c4.267 106.667-21.333 166.4-81.067 196.267zM776.533 716.8v-12.8c-21.333 4.267-46.933 4.267-76.8 4.267h-115.2c-21.333 0-21.333 0-34.133 17.067l-55.467 72.533h192c68.267 0 89.6-21.333 89.6-81.067zM861.867 256c0-136.533-25.6-162.133-162.133-162.133h-384c-136.533 0-162.133 25.6-162.133 162.133v384c0 136.533 25.6 162.133 162.133 162.133h64c42.667 0 46.933-4.267 68.267-34.133l59.733-76.8c17.067-25.6 38.4-42.667 85.333-42.667h115.2c136.533 0 162.133-25.6 162.133-162.133v-230.4zM576 388.267l81.067 81.067c12.8 12.8 12.8 34.133 0 46.933s-34.133 12.8-46.933 0l-81.067-81.067-81.067 81.067c-12.8 12.8-34.133 12.8-46.933 0s-12.8-34.133 0-46.933l81.067-81.067-81.067-81.067c-12.8-12.8-12.8-34.133 0-46.933 4.267-4.267 12.8-8.533 21.333-8.533s17.067 4.267 21.333 8.533l81.067 81.067 81.067-81.067c4.267-4.267 12.8-8.533 21.333-8.533s17.067 4.267 21.333 8.533c12.8 12.8 12.8 34.133 0 46.933l-72.533 81.067z" />
<glyph unicode="&#xe905;" glyph-name="app_folders_select" d="M844.8 686.933v29.867c0 98.133-51.2 149.333-149.333 149.333h-375.467c-170.667 0-221.867-51.2-221.867-221.867v-384c0-170.667 51.2-221.867 221.867-221.867h384c170.667 0 221.867 51.2 221.867 221.867v230.4c4.267 106.667-21.333 166.4-81.067 196.267zM776.533 716.8v-12.8c-21.333 4.267-46.933 4.267-76.8 4.267h-115.2c-21.333 0-21.333 0-34.133 17.067l-55.467 72.533h192c68.267 0 89.6-21.333 89.6-81.067zM861.867 256c0-136.533-25.6-162.133-162.133-162.133h-384c-136.533 0-162.133 25.6-162.133 162.133v384c0 136.533 25.6 162.133 162.133 162.133h64c42.667 0 46.933-4.267 68.267-34.133l59.733-76.8c17.067-25.6 38.4-42.667 85.333-42.667h115.2c136.533 0 162.133-25.6 162.133-162.133v-230.4zM704 512l-234.667-230.4-106.667 106.667c-12.8 12.8-34.133 12.8-46.933 0s-12.8-34.133 0-46.933l128-128c4.267-4.267 12.8-8.533 21.333-8.533 0 0 0 0 0 0 8.533 0 17.067 4.267 21.333 8.533l256 256c12.8 12.8 12.8 34.133 0 46.933-8.533 8.533-25.6 8.533-38.4-4.267z" />
<glyph unicode="&#xe906;" glyph-name="app_folder_tick" d="M704 29.867h-384c-170.667 0-221.867 51.2-221.867 221.867v384c0 170.667 51.2 221.867 221.867 221.867h59.733c68.267 0 89.6-21.333 119.467-59.733l55.467-68.267c12.8-17.067 12.8-17.067 34.133-17.067h115.2c170.667 0 221.867-51.2 221.867-221.867v-230.4c4.267-174.933-51.2-230.4-221.867-230.4zM320 797.867c-136.533 0-162.133-25.6-162.133-162.133v-384c0-136.533 25.6-162.133 162.133-162.133h384c136.533 0 162.133 25.6 162.133 162.133v230.4c0 136.533-25.6 162.133-162.133 162.133h-115.2c-51.2 0-68.267 17.067-85.333 42.667l-59.733 76.8c-21.333 29.867-25.6 34.133-64 34.133h-59.733zM469.333 200.533c0 0 0 0 0 0-8.533 0-17.067 4.267-21.333 8.533l-128 128c-12.8 12.8-12.8 34.133 0 46.933s34.133 12.8 46.933 0l106.667-106.667 234.667 234.667c12.8 12.8 34.133 12.8 46.933 0s12.8-34.133 0-46.933l-256-256c-12.8-4.267-21.333-8.533-29.867-8.533z" />
<glyph unicode="&#xe907;" glyph-name="app_folder" d="M704 29.867h-384c-170.667 0-221.867 51.2-221.867 221.867v384c0 170.667 51.2 221.867 221.867 221.867h59.733c68.267 0 89.6-21.333 119.467-59.733l55.467-68.267c12.8-17.067 12.8-17.067 34.133-17.067h115.2c170.667 0 221.867-51.2 221.867-221.867v-230.4c4.267-174.933-51.2-230.4-221.867-230.4zM320 797.867c-136.533 0-162.133-25.6-162.133-162.133v-384c0-136.533 25.6-162.133 162.133-162.133h384c136.533 0 162.133 25.6 162.133 162.133v230.4c0 136.533-25.6 162.133-162.133 162.133h-115.2c-51.2 0-68.267 17.067-85.333 42.667l-59.733 76.8c-21.333 29.867-25.6 34.133-64 34.133h-59.733z" />
<glyph unicode="&#xe908;" glyph-name="app_backup" d="M938.667 563.2c-17.067 0-34.133-12.8-34.133-34.133v-93.867h-128c-42.667 0-85.333-25.6-106.667-64l-38.4-76.8c-8.533-17.067-25.6-29.867-46.933-29.867h-149.333c-21.333 0-38.4 8.533-46.933 29.867l-38.4 76.8c-21.333 38.4-59.733 64-106.667 64h-128v140.8c0 196.267 68.267 264.533 264.533 264.533h213.333c17.067 0 34.133 12.8 34.133 34.133s-12.8 29.867-29.867 29.867h-213.333c-230.4 0-332.8-98.133-332.8-328.533v-166.4c0 0 0-4.267 0-4.267s0-4.267 0-4.267v-81.067c0-230.4 98.133-332.8 332.8-332.8h256c230.4 0 332.8 98.133 332.8 332.8v213.333c0 17.067-17.067 29.867-34.133 29.867zM640 51.2h-256c-196.267 0-264.533 68.267-264.533 264.533v51.2h128c21.333 0 38.4-12.8 46.933-29.867l38.4-76.8c21.333-42.667 59.733-64 106.667-64h149.333c42.667 0 85.333 25.6 106.667 64l38.4 76.8c8.533 17.067 25.6 29.867 46.933 29.867h128v-46.933c-4.267-196.267-72.533-268.8-268.8-268.8zM682.667 563.2c17.067 0 29.867 12.8 34.133 29.867 21.333-17.067 51.2-29.867 85.333-29.867 59.733 0 115.2 34.133 145.067 85.333 8.533 17.067 4.267 34.133-12.8 42.667s-34.133 4.267-42.667-12.8c-17.067-29.867-51.2-51.2-89.6-51.2-17.067 0-29.867 4.267-42.667 12.8h8.533c17.067 0 34.133 12.8 34.133 34.133s-17.067 29.867-34.133 29.867h-85.333c-17.067 0-29.867-12.8-34.133-29.867 0 0 0 0 0 0v-76.8c0-21.333 17.067-34.133 34.133-34.133zM938.667 904.533c-17.067 0-34.133-12.8-34.133-34.133v-8.533c-25.6 17.067-59.733 29.867-102.4 29.867-59.733 0-115.2-34.133-145.067-85.333-8.533-17.067-4.267-34.133 12.8-42.667s34.133-4.267 42.667 12.8c21.333 38.4 51.2 55.467 89.6 55.467 21.333 0 34.133-4.267 51.2-8.533-17.067 0-29.867-12.8-29.867-29.867s12.8-34.133 34.133-34.133h76.8c0 0 4.267 0 4.267 0 4.267 0 12.8 0 17.067 4.267 8.533 4.267 17.067 17.067 17.067 29.867v81.067c0 17.067-17.067 29.867-34.133 29.867z" />
<glyph unicode="&#xe909;" glyph-name="app_drive" d="M989.867 315.733c-17.067 25.6-196.267 332.8-311.467 533.333 0 0 0 0 0 0-4.267 4.267-4.267 8.533-8.533 8.533 0 0 0 0 0 0s0 0 0 0c-4.267 4.267-8.533 4.267-12.8 4.267 0 0 0 0 0 0h-281.6c0 0 0 0 0 0-4.267 0-8.533 0-12.8-4.267 0 0 0 0 0 0s0 0 0 0c-8.533 0-12.8-4.267-12.8-8.533 0 0 0 0 0 0l-315.733-541.867c-4.267-8.533-4.267-21.333 0-34.133l136.533-226.133c0 0 0 0 0 0 4.267-4.267 4.267-8.533 8.533-8.533 0 0 0 0 0 0 4.267-4.267 8.533-4.267 17.067-4.267 0 0 0 0 0 0s0 0 0 0 0 0 0 0h631.467c0 0 0 0 0 0s0 0 0 0 0 0 0 0c4.267 0 8.533 0 12.8 4.267 0 0 0 0 0 0 4.267 4.267 8.533 4.267 8.533 8.533 0 0 0 0 0 0 46.933 81.067 119.467 209.067 132.267 226.133 4.267 4.267 8.533 12.8 8.533 21.333 8.533 8.533 4.267 12.8 0 21.333zM827.733 128l-76.8 132.267h153.6c-17.067-29.867-42.667-72.533-76.8-132.267zM115.2 256h157.867l-76.8-132.267-81.067 132.267zM375.467 768l98.133-170.667-162.133-277.333h-196.267l260.267 448zM430.933 797.867h162.133l-81.067-136.533-81.067 136.533zM512 537.6l128-213.333h-256l128 213.333zM349.867 256h328.533l93.867-162.133h-520.533l98.133 162.133zM913.067 320h-196.267l-162.133 277.333 98.133 170.667c29.867-51.2 81.067-136.533 128-221.867 64-115.2 102.4-183.467 132.267-226.133z" />
<glyph unicode="&#xe90a;" glyph-name="app_icloud" d="M823.467 170.667h-610.133c-4.267 0-8.533 0-12.8 0-123.733 46.933-145.067 123.733-149.333 166.4-4.267 76.8 51.2 149.333 110.933 183.467 8.533 51.2 29.867 93.867 68.267 115.2 38.4 25.6 85.333 25.6 136.533 8.533 98.133 123.733 226.133 166.4 345.6 106.667 93.867-46.933 153.6-145.067 149.333-226.133 72.533-29.867 110.933-89.6 110.933-162.133 0-85.333-64-166.4-140.8-192-4.267 0-4.267 0-8.533 0zM217.6 234.667h601.6c46.933 17.067 89.6 72.533 89.6 128 0 51.2-34.133 89.6-93.867 110.933-8.533 4.267-12.8 8.533-17.067 17.067s-4.267 17.067 0 25.6c12.8 55.467-38.4 140.8-115.2 179.2-98.133 46.933-200.533 8.533-281.6-106.667-8.533-12.8-25.6-17.067-38.4-12.8-38.4 21.333-72.533 21.333-98.133 4.267-21.333-12.8-34.133-42.667-34.133-76.8 0-12.8-8.533-25.6-17.067-29.867-46.933-21.333-93.867-76.8-93.867-132.267s51.2-85.333 98.133-106.667z" />
<glyph unicode="&#xe90b;" glyph-name="app_oolong_swap" d="M961.51 522.916c-44.619 51.742-151.215 121.818-195.198 119.902-37.986-1.645-79.94-50.519-92.947-66.871-14.18 25.028-26.957 43.157-34.624 49.011-6.012 4.514-12.367 8.555-19.010 12.083-3.142 1.696-6.383 3.253-9.389 4.51-0.546 0.305-0.883 0.503-0.883 0.503-0.143 0.083-0.29 0.16-0.444 0.228-19.842 8.659-41.024 13.894-62.637 15.477-37.453 3.087-79.339 4.7-124.725 4.913v23.799c5.003-3.345 10.825-5.276 16.843-5.589 0.497 0 0.994 0.017 1.489 0.053 18.231 1.257 47.531 18.242 57.009 33.050 3.223 5.035 4.075 9.602 2.537 13.568-1.562 3.663-3.855 6.974-6.739 9.73-2.884 2.758-6.3 4.907-10.042 6.315-12.435 5.087-28.358 3.817-44.836-3.586-20.079-9.058-28.126-21.922-31.354-30.857-1.122 1.001-2.244 2.007-3.369 3.017-12.284 11.049-24.986 22.47-37.619 25.389-8.233 1.754-16.751 1.681-24.949-0.218-8.201-1.899-15.876-5.574-22.481-10.763-7.006-5.803-10.682-12.649-10.349-19.275 0.346-6.976 4.341-13.911 11.247-19.526 9.521-7.742 23.1-11.945 37.749-11.945 13.841-0.043 27.424 3.733 39.236 10.908v-24.107c-31.422-0.247-64.154-1.186-101.841-2.912-23.157-1.045-45.939-6.223-67.255-15.287-0.094-0.038-0.188-0.087-0.282-0.132-25.398-10.782-48.164-26.876-66.753-47.187-6.541 0.811-12.835 2.995-18.464 6.404-10.18 5.903-18.664 14.308-24.636 24.412-3.139 5.026-5.852 9.365-12.077 9.7-12.363 0.674-59.217-6.515-61.885-35.435-0.595-6.11 0.409-10.522 3.109-13.815 2.582-3.281 6.22-4.922 10.433-6.822 9.537-4.303 23.951-10.805 36.501-44.956 3.11-8.384 5.603-15.964 7.655-22.409-0.385-0.668-0.789-1.335-1.161-2.001-0.325-0.582-0.65-1.163-1.018-1.805-45.015-81.423-53.595-220.425-55.196-276.414-0.253-8.497 1.789-16.907 5.914-24.354 4.124-7.445 10.18-13.658 17.538-17.986 54.466-32.023 152.907-35.43 289.154-40.145 12.811-0.444 25.982-0.907 39.511-1.391 14.353-0.523 28.565-0.779 42.637-0.768 135.283 0.002 254.637 22.726 305.931 39.637 9.685 3.217 18.059 9.478 23.855 17.839 5.796 8.363 8.702 18.37 8.282 28.518-0.26 5.807-0.602 11.202-1.022 16.363 21.201-20.928 93.254-41.22 139.151-6.274 29.365 22.404 53.822 94.197 60.928 160.348 5.628 26.95 6.263 42.012 6.298 42.959 0.002 0.079 0.002 0.156 0.002 0.237-0.467 23.806-4.282 55.964-19.823 73.956zM489.79 718.549c-8.036-12.553-34.889-28.075-50.406-29.139-5.301-0.382-11.556 2.831-17.758 7.264-0.021 0.646-0.094 1.289-0.213 1.922 17.135 4.567 49.109 13.907 70.249 24.495-0.277-1.634-0.917-3.185-1.871-4.542zM441.436 732.273c14.308 6.426 27.825 7.661 38.065 3.471 2.989-1.199 5.709-2.974 8.004-5.22-21.218-10.556-55.006-20.267-70.703-24.397-0.57 0.452-1.175 0.858-1.811 1.207 2.901 7.29 9.839 17.446 26.445 24.939zM367.283 685.124c-16.625-2.513-32.64 0.943-42.837 9.233-3.439 2.588-6.050 6.112-7.518 10.146 6.718-1.34 46.46-9.463 76.309-9.527-7.913-4.958-16.734-8.305-25.954-9.852zM317.662 713.013c1.491 2.718 3.514 5.111 5.948 7.040 8.655 6.677 19.294 10.313 30.249 10.338 3.287 0.009 6.566-0.361 9.769-1.103 10.492-2.423 22.359-13.094 33.837-23.415 0.544-0.491 1.086-0.973 1.63-1.461-0.222-0.258-0.429-0.529-0.629-0.804-31.708-0.243-76.975 8.657-80.802 9.406zM123.279 542.918c-0.684 1.615-1.367 3.313-1.965 5.013-7.773 20.898-30.068 45.363-43.821 43.070-6.437-0.975-12.96-1.261-19.458-0.849-2.046 0.766-3.896 1.973-5.42 3.533-0.778 0.951-1.759 2.782-1.279 7.716 1.975 21.397 41.567 27.774 51.931 27.774 0.366 0 0.698-0.006 0.988-0.023 1.607-0.087 2.491-1.229 5.284-5.702 4.117-6.59 10.339-16.548 27.343-27.117 7.346-4.454 15.623-7.17 24.192-7.938 0.914-0.1 1.83-0.16 2.744-0.228 1.93-0.145 3.858-0.247 5.772-0.262 14.123 0.16 28.125 2.603 41.46 7.23 0.466 0.162 0.866 0.305 1.197 0.427 1.28-0.341 2.393-1.129 3.14-2.217 2.946-3.853 8.727-18.293-1.154-69.12-0.329-1.807-0.745-3.616-1.155-5.412-0.673-2.908-1.416-5.76-2.23-8.553-7.646-8.401-21.2-21.199-35.378-24.597-20.672-4.928-38.354 21.918-52.192 57.257zM642.724 215.089c-99.601-62.95-325.455-36.529-369.788-10.705-44.25 25.826-86.617 115.791-75.257 183.157 10.721 63.492 58.326 197.314 69.401 214.978 0.548-0.062 1.094-0.128 1.641-0.19 17.973-1.884 35.996-3.172 54.022-4.053 18.027-0.994 36.064-1.414 54.097-1.867 18.037-0.335 36.068-0.433 54.106-0.461 18.035 0.126 36.075 0.303 54.114 0.8 18.037 0.604 36.083 1.252 54.108 2.59 18.080 1.103 36.090 3.164 53.95 6.17l6.688 1.412c2.223 0.529 4.433 1.158 6.643 1.734 2.014 0.693 4.023 1.344 6.012 2.148 7.23-7.366 45.139-47.531 61.698-98.042 18.364-56.068 68.166-234.724-31.435-297.673zM755.324 368.047c9.833 4.119 39.285 16.781 68.256 32.384 0.183-14.782-1.041-31.616-5.171-38.067-0.186-0.292-1.395-1.818-7.021-3.14l-0.085-0.019c-15.277-3.618-44.226-1.564-53.626-0.759-0.759 3.273-1.555 6.49-2.353 9.602zM952.57 354.15c-10.411-33.056-36.719-63.343-68.655-79.046-19.531-9.604-38.11-12.066-52.333-6.916-27.94 9.993-52.766 35.569-65.519 50.537-0.083 0.467-0.171 0.945-0.256 1.417-0.122 0.674-0.241 1.344-0.369 2.025-0.228 1.242-0.465 2.494-0.708 3.761-0.092 0.478-0.19 0.969-0.284 1.451-0.175 0.896-0.352 1.796-0.533 2.709-0.111 0.553-0.228 1.118-0.341 1.679-0.173 0.853-0.35 1.715-0.529 2.583-0.124 0.593-0.25 1.193-0.375 1.792-0.186 0.89-0.378 1.79-0.572 2.699-0.128 0.587-0.252 1.173-0.382 1.769-0.207 0.96-0.422 1.939-0.64 2.921-0.128 0.576-0.252 1.141-0.382 1.724-0.329 1.474-0.666 2.972-1.013 4.497 11.447-0.905 36.702-2.351 52.198 0.879 0.053-0.023 0.124-0.053 0.179-0.079 0.207-0.090 0.414-0.181 0.655-0.284 0.117-0.049 0.254-0.102 0.378-0.156 0.25-0.102 0.497-0.205 0.779-0.316 0.365-0.145 0.751-0.297 1.167-0.452 0.166-0.062 0.354-0.128 0.529-0.19 0.309-0.113 0.617-0.226 0.951-0.341 0.205-0.073 0.427-0.145 0.642-0.218 0.329-0.109 0.659-0.22 1.007-0.331 0.237-0.075 0.482-0.149 0.73-0.224 0.356-0.109 0.715-0.218 1.090-0.326 0.26-0.075 0.527-0.147 0.794-0.222 0.384-0.105 0.774-0.209 1.175-0.311 0.284-0.073 0.567-0.145 0.858-0.215 0.414-0.1 0.838-0.196 1.269-0.292 0.294-0.066 0.589-0.132 0.89-0.194 0.459-0.096 0.926-0.186 1.399-0.273 0.294-0.055 0.582-0.111 0.881-0.164 0.529-0.090 1.069-0.171 1.615-0.252 0.26-0.038 0.516-0.081 0.781-0.115 0.734-0.1 1.481-0.186 2.242-0.258 0.087-0.009 0.171-0.021 0.258-0.030 0.851-0.079 1.719-0.141 2.603-0.186 0.23-0.011 0.467-0.013 0.7-0.021 0.649-0.026 1.301-0.045 1.965-0.047 0.081-0.002 0.156-0.006 0.237-0.006 0.245 0 0.499 0.015 0.747 0.019 0.582 0.006 1.165 0.019 1.756 0.045 0.365 0.017 0.734 0.043 1.101 0.068 0.565 0.036 1.133 0.079 1.705 0.134 0.386 0.038 0.774 0.083 1.165 0.13 0.565 0.068 1.133 0.145 1.702 0.235 0.395 0.060 0.789 0.126 1.186 0.196 0.578 0.102 1.158 0.222 1.741 0.348 0.393 0.083 0.785 0.169 1.178 0.262 0.604 0.147 1.21 0.314 1.815 0.486 0.373 0.105 0.747 0.203 1.122 0.32 0.666 0.205 1.333 0.442 2.001 0.681 0.316 0.113 0.631 0.213 0.947 0.335 0.96 0.367 1.92 0.768 2.878 1.21l0.070 0.028c0.986 0.457 1.971 0.96 2.955 1.5 0.279 0.154 0.555 0.331 0.834 0.491 0.698 0.403 1.393 0.813 2.086 1.259 0.354 0.228 0.706 0.482 1.060 0.723 0.612 0.418 1.225 0.843 1.833 1.299 0.382 0.286 0.762 0.593 1.141 0.894 0.576 0.457 1.148 0.926 1.717 1.419 0.39 0.337 0.779 0.689 1.167 1.043 0.555 0.51 1.107 1.039 1.655 1.585 0.386 0.382 0.768 0.77 1.15 1.171 0.546 0.576 1.088 1.18 1.628 1.794 0.371 0.422 0.74 0.841 1.107 1.282 0.55 0.661 1.090 1.361 1.632 2.067 0.339 0.446 0.685 0.877 1.020 1.34 0.587 0.804 1.158 1.658 1.73 2.517 0.277 0.416 0.561 0.811 0.836 1.242 0.838 1.314 1.662 2.682 2.468 4.124 11.629 20.826 14.81 43.136 14.735 61.553-0.043 12.471-1.547 24.898-4.484 37.024-0.25 1.005-0.457 1.764-0.612 2.319-2.148 41.331-44.175 101.907-79.49 101.907-42.786 0-67.652-41.372-68.691-43.132-0.567-0.973-0.725-2.127-0.439-3.215 0.288-1.088 0.996-2.016 1.971-2.586s2.138-0.73 3.232-0.448c1.092 0.282 2.031 0.983 2.605 1.95 0.233 0.39 23.488 38.935 61.323 38.935 28.623 0 68.981-53.502 70.967-93.794l0.023-0.518c0.497-11.251-2.108-20.192-7.746-26.583-1.193-1.355-2.519-2.743-3.979-4.164-1.116-1.086-2.33-2.195-3.597-3.315-0.994-0.879-2.031-1.769-3.115-2.667-0.843-0.698-1.711-1.402-2.609-2.11-0.452-0.358-0.9-0.715-1.367-1.075-12.011-9.011-24.689-17.111-37.922-24.23l-0.019-0.013c-1.655-0.919-3.315-1.828-4.979-2.726-0.333-0.179-0.663-0.358-0.996-0.538-1.623-0.877-3.249-1.741-4.873-2.598-0.254-0.132-0.503-0.265-0.757-0.397-1.53-0.802-3.055-1.596-4.58-2.381-0.211-0.109-0.422-0.22-0.634-0.329-1.634-0.838-3.26-1.664-4.879-2.479-0.316-0.158-0.629-0.316-0.943-0.474-3.283-1.647-6.519-3.241-9.679-4.77-0.288-0.139-0.576-0.279-0.864-0.418-1.53-0.738-3.040-1.461-4.533-2.172-0.252-0.119-0.501-0.237-0.755-0.356-1.367-0.649-2.714-1.284-4.041-1.903-0.196-0.092-0.397-0.186-0.591-0.277-1.421-0.663-2.812-1.308-4.173-1.935-0.303-0.139-0.604-0.277-0.902-0.414-1.357-0.623-2.692-1.233-3.981-1.815l-0.213-0.096c-1.271-0.576-2.5-1.129-3.699-1.666-0.213-0.094-0.431-0.192-0.642-0.286-1.199-0.535-2.357-1.050-3.475-1.545l-0.555-0.243c-1.082-0.478-2.131-0.937-3.121-1.37l-0.156-0.066c-1.099-0.48-2.135-0.928-3.115-1.35l-0.134-0.058c-1.986-0.855-3.714-1.589-5.133-2.187-0.198 0.753-0.403 1.493-0.604 2.242-0.367 1.376-0.738 2.748-1.109 4.113-0.427 1.564-0.855 3.121-1.286 4.672-0.373 1.338-0.747 2.669-1.122 3.996-0.442 1.555-0.885 3.102-1.333 4.642-0.378 1.306-0.757 2.607-1.139 3.904-0.452 1.538-0.909 3.068-1.367 4.587-0.384 1.276-0.768 2.549-1.154 3.814-0.469 1.534-0.943 3.057-1.417 4.576-0.38 1.222-0.762 2.445-1.143 3.657-0.489 1.538-0.979 3.063-1.47 4.587-0.38 1.175-0.757 2.353-1.139 3.52-0.501 1.536-1.009 3.055-1.515 4.576-0.375 1.124-0.749 2.255-1.124 3.371-0.523 1.547-1.045 3.072-1.57 4.599-0.365 1.062-0.73 2.133-1.097 3.187-0.55 1.583-1.103 3.142-1.655 4.704-0.343 0.975-0.687 1.958-1.033 2.923-0.591 1.658-1.186 3.287-1.779 4.919-0.309 0.845-0.617 1.702-0.924 2.543-0.695 1.892-1.393 3.755-2.089 5.613-0.209 0.555-0.416 1.124-0.625 1.675-0.911 2.417-1.822 4.804-2.733 7.162-0.051 0.132-0.102 0.26-0.154 0.393-0.855 2.21-1.711 4.395-2.564 6.554-0.262 0.657-0.521 1.297-0.781 1.95-0.644 1.613-1.286 3.226-1.926 4.806-0.331 0.817-0.659 1.611-0.99 2.419-0.565 1.382-1.131 2.767-1.692 4.126-0.365 0.879-0.725 1.737-1.088 2.605-0.531 1.269-1.062 2.541-1.589 3.787-0.371 0.877-0.738 1.732-1.107 2.596-0.51 1.195-1.020 2.391-1.525 3.567-0.39 0.9-0.774 1.781-1.163 2.669-0.48 1.103-0.96 2.204-1.436 3.285-0.395 0.896-0.785 1.775-1.178 2.656-0.465 1.050-0.93 2.097-1.391 3.125-0.395 0.875-0.783 1.734-1.173 2.594-0.448 0.992-0.896 1.982-1.34 2.953-0.397 0.866-0.787 1.715-1.18 2.564-0.429 0.932-0.855 1.858-1.28 2.769-0.397 0.853-0.789 1.69-1.18 2.524-0.41 0.87-0.815 1.732-1.218 2.583-0.397 0.841-0.791 1.67-1.182 2.49-0.388 0.815-0.774 1.619-1.156 2.415-0.388 0.806-0.774 1.602-1.156 2.389-0.378 0.779-0.751 1.545-1.122 2.304-0.378 0.774-0.753 1.54-1.126 2.298-0.354 0.717-0.702 1.419-1.050 2.118-0.38 0.764-0.757 1.523-1.129 2.266-0.322 0.646-0.64 1.274-0.956 1.903-0.384 0.759-0.764 1.515-1.139 2.251-0.286 0.565-0.567 1.114-0.849 1.664-0.384 0.753-0.768 1.502-1.141 2.225-0.25 0.486-0.491 0.951-0.736 1.423-0.395 0.762-0.789 1.521-1.169 2.251-0.196 0.373-0.384 0.73-0.578 1.097-0.41 0.781-0.817 1.557-1.212 2.3-0.132 0.25-0.258 0.484-0.388 0.73-1.001 1.879-1.95 3.648-2.829 5.263 8.896 11.435 52.395 64.902 88.821 66.481 0.51 0.021 1.033 0.032 1.562 0.032 41.783 0 144.361-67.789 186.782-116.979 10.976-12.713 17.118-36.382 17.76-68.457-0.102-2.172-2.029-37.024-20.22-94.778z" />
<glyph unicode="&#xe90c;" glyph-name="app_empty" d="M901.303 679.066c92.821-139.215 101.188-368.593-45.495-534.69-148.343-167.979-410.193-194.782-594.644-86.665-15.247 8.939-20.362 28.544-11.424 43.789 8.937 15.249 28.542 20.365 43.789 11.426 160.611-94.148 388.136-69.065 514.31 73.813 126.144 142.839 118.076 340.049 40.218 456.823-9.805 14.704-5.833 34.572 8.875 44.376 14.703 9.804 34.569 5.832 44.373-8.873zM961.293 852.039l-853.332-853.332c-12.497-12.497-32.758-12.497-45.255 0s-12.497 32.755 0 45.252l103.988 103.991c-64.253 80.636-99.258 191.787-101.352 301.103-2.185 114.083 31.451 231.132 111.447 312.069 157.186 159.034 423.77 177.101 620.186 29.588 2.423-1.82 4.514-3.918 6.263-6.217l112.802 112.8c12.497 12.497 32.755 12.497 45.252 0s12.497-32.758 0-45.255zM212.297 193.553l546.095 546.094c-172.595 129.513-402.975 111.16-536.084-23.514-64.57-65.329-94.934-163.724-92.978-265.85 1.824-95.189 31.709-189.312 82.967-256.73z" />
<glyph unicode="&#xe90d;" glyph-name="app_evm" d="M374.184 344.337l68.693-30.72c43.947-19.627 94.293-19.627 138.667 0l68.693 30.72c61.44 27.307 118.189-46.933 75.522-98.987l-147.627-180.48c-36.267-44.373-95.576-44.373-132.269 0l-147.198 180.48c-43.093 52.053 13.651 126.293 75.518 98.987zM365.653 462.078c-12.8-9.387-11.093-29.013 3.413-36.267l100.267-49.92c23.467-11.947 61.44-11.947 84.48 0l100.267 49.92c14.080 7.253 15.787 26.453 3.413 36.267l-132.693 99.84c-7.68 5.547-17.92 5.547-25.6 0l-133.547-99.84zM762.875 608.429l-177.92 221.867c-3.413 4.267-7.253 8.107-11.093 11.947-11.093 10.667-26.88 0.853-26.88-14.507v-183.467c0-6.827 2.987-13.227 8.533-17.067l177.067-133.12 7.68-5.547c7.68-5.547 18.347-5.547 24.747 1.28 29.867 32.427 29.44 79.36-2.133 118.613zM260.698 604.574l177.067 225.281c3.413 4.267 6.827 8.107 10.667 11.947 11.093 10.667 26.88 1.28 26.88-14.507v-186.454c0-6.827-2.987-12.8-8.533-17.067l-183.467-140.8c-7.68-5.547-18.347-5.547-25.173 1.707-29.012 32.853-28.586 79.787 2.56 119.893z" />
<glyph unicode="&#xe90e;" glyph-name="app_mojitoswap" d="M893.905 119.723c-2.091 0-4.092 0.817-5.566 2.274-1.476 1.457-2.3 3.424-2.3 5.476v643.075c0.034 10.066-2.449 19.984-7.234 28.878-4.777 8.895-11.71 16.491-20.181 22.116-8.471 5.626-18.217 9.108-28.382 10.137-10.157 1.030-20.42-0.425-29.873-4.235-85.18-34.582-165.495-79.779-239.004-134.49-149.474-111.39-210.679-250.995-210.679-384.087s89.606-186.66 162.298-186.66c72.691 0 163.712 62.716 163.712 186.66 0 123.947-32.649 174.641-75.209 247.040 39.505 20.764 81.933 35.629 125.869 44.107 3.074 0.608 6.234 0.538 9.271-0.205s5.865-2.138 8.286-4.087c2.423-1.95 4.382-4.405 5.724-7.187 1.344-2.782 2.046-5.824 2.054-8.907v-459.904c0-13.897 5.602-27.223 15.573-37.045 9.973-9.833 23.501-15.354 37.609-15.354h132.794v52.399h-44.762zM513.062 150.114c-31.469 0-82.605 41.084-82.605 148.902 0 107.827 66.477 179.996 83.313 191.234 14.317-9.999 83.311-82.089 83.311-191.155s-52.553-148.981-84.019-148.981zM380.267 577.534c-26.108 11.3-53.536 19.373-81.66 24.030-2.997 0.437-6.054 0.228-8.964-0.61-2.908-0.838-5.598-2.287-7.885-4.245s-4.115-4.382-5.363-7.102c-1.246-2.722-1.882-5.677-1.86-8.661v-461.222c0-13.897-5.602-27.223-15.575-37.045-9.973-9.833-23.501-15.354-37.604-15.354h-136.021v52.399h48.304c2.087 0 4.087 0.817 5.563 2.274s2.304 3.424 2.304 5.476v642.3c0.006 10.068 2.528 19.979 7.344 28.859s11.777 16.455 20.267 22.055c8.491 5.601 18.251 9.055 28.418 10.058s20.429-0.477 29.877-4.308c88.663-35.263 171.889-82.567 247.26-140.536-36.211-31.831-67.959-68.275-94.404-108.367z" />
<glyph unicode="&#xe90f;" glyph-name="app_spiritswap" d="M895.211 333.267c-0.439-0.572-0.902-1.173-1.082-1.83-9.193-33.532-32.57-51.518-65.052-59.729-6.225-1.574-12.548-2.406-18.871-3.241h-0.004c-3.373-0.444-6.746-0.887-10.101-1.444-37.455-6.21-62.645-35.616-62.938-73.491-0.337-43.774-25.035-75.746-66.061-84.734-5.116-1.122-10.362-1.404-15.625-1.687h-0.002c-5.148-0.275-10.31-0.555-15.383-1.619-27.682-5.813-50.703-18.948-60.911-46.283-6.861-18.366-20.241-26.336-36.749-31.234-14.965-4.442-30.387-7.1-46.236-6.494-11.454 0.437-22.963 0.597-34.4-0.013-31.575-1.685-61.141 6.428-89.929 18.054-41.314 16.689-77.148 41.971-109.47 72.254-37.751 35.371-71.4 74.061-96.136 120.015-21.523 39.987-33.769 82.562-35.846 127.706-3.375 73.357-2.803 146.837-0.786 220.177 2.018 73.348 30.783 137.225 79.68 191.683 48.236 53.722 107.97 87.572 179.178 100.652 30.989 5.692 62.34 5.329 93.553 3.887 62.622-2.895 119.821-22.537 169.969-60.376 74.257-56.032 115.601-130.715 124.25-223.539 0.998-10.72 0.521-21.387 0.041-32.045v-0.002c-0.39-8.685-0.779-17.365-0.369-26.065 1.585-33.658 7.017-66.327 24.326-95.962 9.76-16.704 23.008-29.909 39.661-39.93 8.597-5.173 17.278-6.803 26.874-4.307 2.217 0.576 4.461 1.060 6.703 1.534 11.659 2.458 17.568-1.030 21.282-12.484 0.158-0.486 0.476-0.922 0.794-1.357 0.111-0.151 0.22-0.301 0.324-0.454 0.036-0.053 0.070-0.107 0.105-0.16v-46.306c-0.177-0.38-0.478-0.77-0.787-1.173l-0.002-0.002zM791.051 303.49l0.762 0.139c-0.201 0.051-0.352 0.1-0.553 0.151-0.023 0.006-0.045 0.011-0.068 0.015-0.070 0.015-0.141 0.023-0.209 0.032-0.1 0.015-0.194 0.028-0.273 0.053-110.080 26.327-122.116 101.905-122.116 161.984v0.149c0 20.26-0.702 39.569-1.651 56.269-0.905 16.949-2.11 31.243-3.010 41.122-16.499-32.649-50.351-55.063-89.468-55.063-55.366 0-100.247 44.883-100.247 100.198 0 55.364 44.881 100.247 100.247 100.247 21.666 0 41.726-6.869 58.074-18.554-1.756 4.563-3.61 8.975-5.566 13.289-1.254 2.859-2.609 5.668-3.964 8.425-5.967 12.239-12.589 23.322-19.657 33.35-1.909 2.808-3.863 5.467-5.869 8.075-2.057 2.707-4.113 5.265-6.219 7.772-1.052 1.303-2.106 2.506-3.157 3.709l-0.002 0.002c-2.206 2.558-4.412 5.015-6.669 7.372-1.041 1.14-2.133 2.232-3.221 3.323l-0.038 0.038c-1.054 1.103-2.157 2.206-3.26 3.259-2.206 2.156-4.416 4.213-6.622 6.218-1.082 0.985-2.167 1.923-3.249 2.859l-0.058 0.050c-13.242 11.585-26.63 20.562-39.068 27.532-1.856 1.053-3.661 2.056-5.468 2.959-1.254 0.702-2.507 1.354-3.71 1.955-1.045 0.537-2.106 1.056-3.153 1.568l-0.006 0.003c-0.71 0.348-1.417 0.692-2.106 1.037-2.157 1.003-4.213 1.955-6.219 2.807-2.558 1.104-5.015 2.157-7.375 3.11-7.872 3.11-14.692 5.316-20.006 6.821l-0.71 0.188c-0.693 0.185-1.361 0.363-1.999 0.513-0.201 0.050-0.352 0.1-0.501 0.151-0.853 0.251-1.705 0.452-2.458 0.601-0.337 0.079-0.657 0.159-0.966 0.235h-0.002c-0.471 0.116-0.915 0.226-1.338 0.317l-0.813 0.178c-0.388 0.086-0.742 0.164-1.043 0.224l-0.367 0.075c-0.354 0.073-0.674 0.138-0.939 0.176-0.049 0-0.1 0-0.149 0.049-0.262 0-0.501 0.043-0.749 0.087-0.132 0.023-0.265 0.047-0.403 0.065h-28.687c0 0-0.1 0-0.25-0.051-5.568-1.504-94.481-27.030-148.693-134.852 9.877 3.311 20.459 5.065 31.443 5.065 55.366 0 100.247-44.883 100.247-100.247 0-55.315-44.881-100.198-100.247-100.198-30.443 0-57.724 13.54-76.077 34.953-0.587 0.634-1.092 1.265-1.628 1.933l-0.179 0.224v-148.642c0-78.234 27.535-152.405 75.377-210.227 0.307-0.361 0.617-0.708 0.924-1.056 0.294-0.329 0.587-0.659 0.881-1.001 18.353-20.16 38.716-37.813 61.030-53.261 27.031-18.654 55.917-33.749 86.208-45.935 0.055-0.015 0.109-0.032 0.164-0.051 0.045-0.015 0.090-0.032 0.132-0.049l0.075-0.026c0.077-0.030 0.154-0.055 0.23-0.075 22.468-7.823 47.241-14.746 74.473-20.561 0 0 0.653 2.607 1.854 6.018 0.555 0.951 1.005 1.954 1.406 3.059 1.103 3.36 2.756 6.517 4.463 9.628 19.309 34.453 49.698 52.757 87.763 59.678 4.653 0.849 9.389 1.169 14.114 1.489h0.002c5.054 0.343 10.097 0.685 15.021 1.67 21.363 4.311 34.052 22.818 34.101 48.243 0.149 53.961 38.214 99.497 91.121 109.075l0.341 0.062zM320.745 660.066c-27.684 0-50.15-22.466-50.15-50.199 0-27.682 22.466-50.15 50.15-50.15v100.35zM566.001 556.86v100.35c-27.682 0-50.15-22.468-50.15-50.199 0-27.684 22.468-50.15 50.15-50.15z" />
<glyph unicode="&#xe910;" glyph-name="app_spookyswap" d="M160.22 472.233c-6.357 34.835-11.163 70.605-5.741 105.5 5.888 54.046 24.405 70.543 80.128 56.691 6.242-1.451 12.924-3.394 19.855-5.754 4.732 8.555 10.351 18.692 15.979 28.843v0c14.327 25.847 28.7 51.772 28.572 51.799-16.469 7.494-32.282 16.354-47.275 26.483-1.581 1.216-3.070 2.545-4.457 3.977-6.95-11.091-24.642-24.401-24.642-24.401s19.682-34.615 13.453-41.813c-6.229-7.196-41.329 14.65-41.329 14.65s-26.766-30.15-35.499-25.6c-8.732 4.55 1.167 43.834 1.167 43.834s-37.86 16.098-35.271 25.655c2.588 9.557 42.041 12.459 42.041 12.459s-2.218 38.941 9.814 40.705c12.060 1.764 28.444-35.157 28.444-35.157s25.751 6.93 38.133 3.663c1.118 2.085 2.918 4.348 3.908 5.581 3.846 4.525 8.092 8.694 12.687 12.459 10.948 8.966 22.453 17.231 34.445 24.747 4.186 2.762 8.495 5.479 12.802 8.195l0.004 0.002c1.545 0.975 3.091 1.949 4.631 2.926 17.69 11.265 31.925 21.326 45.414 30.858v0c17.743 12.539 34.191 24.164 55.507 36.413 3.187 1.826 6.229 3.59 9.154 5.287l0.002 0.001c29.971 17.383 47.789 27.716 85.647 25.773 52.224 0 182.044-165.377 240.585-250.595 5.948-8.674 12.239-18.526 18.671-29.075 9.282 3.43 18.238 6.185 26.436 8.087 55.693 13.852 74.24-2.645 80.1-56.691 5.449-35.081 0.585-71.049-5.818-106.061 50.219-15.842 97.692-37.611 109.786-51.723 9.843-11.469-26.035-17.444-67.625-24.369-6.487-1.082-13.116-2.185-19.729-3.337-5.506-0.958-12.493-1.862-20.783-2.716 4.375-18.814 6.667-38.257 6.667-58.15 0-20.158-2.353-39.851-6.842-58.895 20.768-3.39 41.173-8.907 60.894-16.489 1.766-0.542 3.26-1.741 4.175-3.347s1.182-3.505 0.742-5.299c-0.512-1.818-1.717-3.358-3.356-4.288-1.643-0.932-3.582-1.182-5.402-0.691-19.644 7.586-39.998 13.041-60.715 16.303-4.162-14.116-9.508-27.84-15.945-41.090 2.671-0.725 5.327-1.508 7.968-2.349 16.838-5.035 34.844-11.776 47.93-23.921 6.709-6.259-3.358-16.271-10.071-10.069-5.555 4.794-11.795 8.723-18.517 11.663-7.789 3.582-15.844 6.558-24.094 8.902-3.283 1.041-6.594 1.986-9.929 2.831-6.327-11.447-13.483-22.507-21.406-33.124 15.966-9.44 30.654-20.964 41.434-35.84 0.939-1.63 1.201-3.563 0.727-5.382-0.474-1.822-1.645-3.379-3.258-4.346-1.638-0.907-3.565-1.146-5.376-0.67-1.815 0.478-3.373 1.632-4.352 3.23-8.192 11.292-19.77 20.053-31.43 27.477-2.234 1.382-4.486 2.731-6.756 4.049-65.033-78.908-173.766-130.537-296.87-130.537-122.492 0-230.714 51.238-295.823 129.504-1.869-1.126-3.725-2.272-5.568-3.441-11.348-7.313-22.812-15.872-30.804-26.91-0.991-1.594-2.556-2.746-4.372-3.215-1.816-0.474-3.744-0.228-5.384 0.685-1.619 0.96-2.794 2.517-3.268 4.341-0.474 1.822-0.209 3.757 0.736 5.387 9.425 12.226 20.99 22.645 34.133 30.746 1.874 1.216 3.762 2.411 5.665 3.58-8.155 10.795-15.515 22.050-22.012 33.711-2.759-0.73-5.503-1.525-8.227-2.389-14.848-4.352-31.829-10.496-42.666-20.538-6.713-6.227-16.783 3.812-10.041 10.042 13.17 12.173 31.289 18.886 48.014 23.923 2.048 0.653 4.106 1.269 6.173 1.854-6.513 13.282-11.929 27.038-16.151 41.188-20.038-3.292-39.726-8.642-58.745-15.991-1.817-0.48-3.751-0.23-5.385 0.7-1.633 0.932-2.836 2.468-3.347 4.279-0.453 1.811-0.192 3.727 0.73 5.353s2.432 2.835 4.22 3.377c19.060 7.324 38.761 12.721 58.808 16.137-4.602 19.255-7.017 39.174-7.017 59.561 0 18.611 2.008 36.83 5.852 54.511-14.649 1.007-25.884 2.071-32.838 3.168-40.59 6.4-87.011 18.118-78.848 30.893 5.784 9.013 51.218 33.961 110.751 52.284zM364.284 339.454c-42.24 18.63-114.432 13.911-114.432 13.911s3.386-67.955 44.828-91.025c49.152-27.334 140.544-13.794 140.544-13.794s-7.767 63.202-70.94 91.049v-0.141zM598.976 248.433c0 0 91.392-13.542 140.544 13.796 41.444 23.068 44.83 91.021 44.83 91.021s-72.192 4.723-114.432-13.911c-63.174-27.59-70.942-90.65-70.942-90.65v-0.256zM497.6 200.533c0-5.009 9.303-9.075 20.766-9.075s20.764 4.066 20.764 9.075c0 5.005-9.301 9.043-20.764 9.043s-20.766-3.895-20.766-9.043z" />
<glyph unicode="&#xe911;" glyph-name="app_calendar_tick" d="M333.167 332.791c23.564 0 42.667 19.102 42.667 42.667s-19.102 42.667-42.667 42.667c-23.564 0-42.667-19.102-42.667-42.667s19.103-42.667 42.667-42.667zM375.833 247.458c0-23.565-19.102-42.667-42.667-42.667s-42.667 19.102-42.667 42.667c0 23.565 19.103 42.667 42.667 42.667s42.667-19.102 42.667-42.667zM490.667 332.791c23.565 0 42.667 19.102 42.667 42.667s-19.102 42.667-42.667 42.667c-23.565 0-42.667-19.102-42.667-42.667s19.102-42.667 42.667-42.667zM810.671 192c0 17.673-14.327 32-32 32s-32-14.327-32-32v-39.68c0-4.006-2.014-7.3-4.975-9.020l-0.503-0.299-32.427-19.627c-15.117-9.152-19.955-28.826-10.803-43.947 9.152-15.117 28.826-19.955 43.947-10.803l32.213 19.499c23.313 13.675 36.548 38.438 36.548 64.196v39.68zM366.569 875.447c0 17.242-13.978 31.22-31.219 31.22s-31.22-13.978-31.22-31.22v-32.479c-63.934-5.321-114.63-27.477-150.357-65.952-40.971-44.123-57.773-104.913-57.773-172.138v-353.823c0-67.226 16.802-128.013 57.773-172.134 41.36-44.544 102.781-67.213 181.577-67.213h295.4c33.438-26.411 75.435-41.626 120.862-41.626 72.094 0 134.891 38.519 169.062 95.795 18.325 29.803 28.659 64.943 28.659 101.926 0 45.7-15.727 87.582-41.626 121.058v316.016c0 67.225-16.802 128.015-57.775 172.138-35.725 38.476-86.421 60.631-150.357 65.952v32.479c0 17.242-13.978 31.22-31.219 31.22s-31.219-13.978-31.219-31.22v-31.219h-270.568v31.219zM199.528 734.529c21.938 23.625 55.276 40.738 104.602 45.75v-29.71c0-17.242 13.978-31.219 31.22-31.219s31.219 13.978 31.219 31.219v31.22h270.568v-31.22c0-17.242 13.978-31.219 31.219-31.219s31.219 13.978 31.219 31.219v29.71c49.327-5.012 82.667-22.124 104.606-45.75 25.63-27.604 39.945-68.651 41.020-122.984h-686.697c1.076 54.333 15.391 95.38 41.023 122.984zM158.439 549.106h686.831v-207.222c-27.797 15.036-59.674 23.646-93.658 23.646-109.235 0-197.726-88.491-197.726-197.726 0-33.621 8.542-65.715 23.855-93.658h-242.391c-66.895 0-109.54 18.957-135.822 47.258-26.671 28.727-41.089 72-41.089 129.651v298.051zM751.612 303.091c40.503 0 76.634-17.839 101.402-45.978 21.141-24.23 33.882-55.317 33.882-89.31 0-25.365-7.1-49.254-19.499-69.359l-0.256-0.431c-23.305-39.172-66.167-65.493-115.529-65.493-34.249 0-65.126 12.493-88.593 33.613l-0.401 0.354-0.422 0.358c-10.112 8.482-19.029 19.021-25.98 30.942l-0.393 0.657c-12.399 20.105-19.499 43.994-19.499 69.359 0 74.752 60.535 135.287 135.287 135.287z" />
<glyph unicode="&#xe912;" glyph-name="app_aurora" d="M376.162 780.969c57.637 109.208 214.045 109.208 271.682 0l269.146-509.96c53.987-102.29-20.178-225.295-135.841-225.295h-538.291c-115.663 0-189.828 123.004-135.841 225.295l269.145 509.96zM583.158 746.829c-30.191 57.204-112.118 57.204-142.312 0l-269.144-509.961c-28.279-53.58 10.57-118.011 71.155-118.011h538.291c60.584 0 99.433 64.432 71.156 118.011l-269.146 509.961z" />
<glyph unicode="&#xe913;" glyph-name="app_coin" d="M819.2 635.733c0 72.533-34.133 140.8-93.867 196.267-59.733 51.2-136.533 76.8-217.6 76.8-8.533 0-21.333 0-29.867 0 0 0-4.267 0-4.267 0-8.533 0-17.067 0-25.6-4.267 0 0 0 0-4.267 0-55.467-12.8-106.667-38.4-149.333-76.8-51.2-42.667-81.067-102.4-89.6-166.4 0 0 0 0 0 0 0-8.533 0-17.067 0-29.867v-213.333c0 0 0 0 0 0s0 0 0 0v-157.867c0-149.333 140.8-273.067 307.2-273.067 170.667 0 307.2 123.733 307.2 273.067v157.867c0 0 0 0 0 0s0 0 0 0v217.6zM264.533 473.6c55.467-64 145.067-98.133 247.467-98.133 98.133 0 187.733 38.4 247.467 98.133v-51.2c0-110.933-106.667-196.267-247.467-196.267s-247.467 85.333-247.467 196.267v51.2zM686.933 780.8c46.933-38.4 68.267-93.867 68.267-145.067 0-34.133-8.533-59.733-25.6-89.6-38.4-68.267-123.733-106.667-221.867-106.667-93.867 0-179.2 42.667-221.867 106.667-12.8 25.6-21.333 55.467-21.333 89.6 0 12.8 0 25.6 4.267 38.4 0 0 0 0 0 0 4.267 12.8 8.533 25.6 12.8 34.133 0 0 0 0 0 4.267 8.533 12.8 17.067 21.333 25.6 34.133 0 0 0 0 0 4.267 8.533 8.533 17.067 21.333 29.867 29.867 0 0 0 0 0 0 12.8 8.533 21.333 17.067 34.133 25.6 0 0 0 0 4.267 0 12.8 8.533 25.6 12.8 38.4 17.067 0 0 4.267 0 4.267 0 12.8 4.267 29.867 8.533 42.667 12.8 0 0 0 0 0 0 17.067 4.267 29.867 4.267 46.933 4.267 72.533 0 132.267-21.333 179.2-59.733zM755.2 256c-4.267-115.2-110.933-204.8-243.2-204.8s-243.2 89.6-243.2 204.8c0 0 0 0 4.267-4.267s8.533-8.533 12.8-12.8c4.267 0 4.267-4.267 8.533-4.267 8.533-4.267 17.067-12.8 21.333-17.067 4.267 0 4.267-4.267 8.533-4.267 4.267-4.267 12.8-8.533 17.067-12.8 4.267 0 8.533-4.267 12.8-4.267 0-4.267 8.533-4.267 12.8-8.533 4.267 0 8.533-4.267 12.8-4.267s12.8-4.267 17.067-4.267c4.267 0 8.533-4.267 12.8-4.267s12.8-4.267 17.067-4.267c4.267 0 8.533 0 12.8-4.267 8.533 0 12.8 0 21.333-4.267 4.267 0 8.533 0 12.8 0 8.533 0 17.067 0 29.867 0 4.267 0 4.267 0 8.533 0s4.267 0 8.533 0c8.533 0 17.067 0 29.867 0 4.267 0 8.533 0 12.8 0 8.533 0 12.8 0 21.333 4.267 4.267 0 8.533 0 12.8 4.267 4.267 0 12.8 4.267 17.067 4.267s8.533 4.267 12.8 4.267c4.267 0 12.8 4.267 17.067 4.267s8.533 4.267 12.8 4.267c4.267 4.267 12.8 4.267 17.067 8.533 4.267 0 8.533 4.267 12.8 4.267 8.533 4.267 12.8 8.533 17.067 12.8 4.267 0 4.267 4.267 8.533 4.267 8.533 4.267 17.067 12.8 21.333 17.067 4.267 0 4.267 4.267 8.533 8.533s8.533 8.533 12.8 12.8c0 0 0 0 0 0z" />
<glyph unicode="&#xe914;" glyph-name="app_wallet_3" d="M554.667 516.267h-256c-17.067 0-34.133-12.8-34.133-34.133s12.8-34.133 34.133-34.133h256c17.067 0 34.133 12.8 34.133 34.133s-17.067 34.133-34.133 34.133zM896 499.2h-8.533v29.867c0 110.933-89.6 204.8-204.8 204.8h-12.8c-17.067 85.333-89.6 140.8-187.733 140.8h-238.933c-102.4 0-187.733-85.333-187.733-187.733v-452.267c0-110.933 89.6-204.8 204.8-204.8h426.667c110.933 0 204.8 89.6 204.8 204.8v29.867h4.267c42.667 0 76.8 34.133 76.8 76.8v89.6c0 34.133-34.133 68.267-76.8 68.267zM243.2 806.4h238.933c51.2 0 106.667-25.6 119.467-76.8h-345.6c-55.467 0-102.4-21.333-136.533-55.467v8.533c0 68.267 55.467 123.733 123.733 123.733zM814.933 256h8.533v-29.867c0-76.8-64-136.533-136.533-136.533h-430.933c-76.8 0-136.533 64-136.533 136.533v298.667c0 76.8 64 136.533 136.533 136.533h426.667c76.8 0 136.533-64 136.533-136.533v-29.867h-12.8c-34.133 0-64-12.8-85.333-34.133 0 0 0 0 0 0s0 0 0 0 0 0 0 0c-8.533-8.533-12.8-12.8-17.067-21.333 0-4.267-4.267-4.267-4.267-8.533-4.267-4.267-4.267-12.8-8.533-17.067 0-4.267 0-4.267-4.267-8.533 0-4.267-4.267-12.8-4.267-21.333 0-4.267 0-8.533 0-8.533s0-4.267 0-4.267 0-8.533 4.267-17.067c0 0 0-4.267 0-4.267s0 0 0 0 0 0 0 0c0-8.533 4.267-12.8 8.533-21.333 0 0 0 0 0 0 4.267-4.267 8.533-12.8 12.8-17.067 0 0 0 0 0 0 4.267-4.267 8.533-8.533 12.8-12.8 0 0 0 0 4.267-4.267s8.533-8.533 12.8-8.533c0 0 4.267-4.267 4.267-4.267 4.267-4.267 8.533-4.267 12.8-4.267s4.267-4.267 8.533-4.267c4.267 0 8.533-4.267 12.8-4.267s8.533 0 8.533-4.267c4.267 0 12.8 0 17.067 0 8.533-4.267 8.533-4.267 12.8-8.533v0c0 4.267 0 0 0 0zM904.533 332.8c0-4.267-4.267-12.8-12.8-12.8h-81.067c-4.267 0-4.267 0-4.267 0-4.267 0-8.533 0-17.067 4.267-4.267 0-4.267 4.267-8.533 4.267s-8.533 4.267-12.8 8.533c0 0-4.267 4.267-4.267 4.267-4.267 4.267-8.533 8.533-8.533 12.8 0 0 0 4.267-4.267 4.267-4.267 4.267-4.267 8.533-4.267 12.8 0 0 0 4.267 0 4.267s0 4.267 0 4.267 0 4.267 0 8.533 0 4.267 0 4.267 0 4.267 4.267 4.267c0 4.267 0 4.267 4.267 8.533 0 4.267 4.267 4.267 4.267 8.533 0 0 0 4.267 4.267 4.267 0 0 0 0 0 0 8.533 8.533 25.6 17.067 38.4 17.067h51.2c0 0 0 0 0 0h42.667c8.533 0 12.8-4.267 12.8-12.8v-89.6z" />
<glyph unicode="&#xe915;" glyph-name="app_frame_4" d="M844.8 482.133c0 0 0 0 0 0h-174.933c-85.333 0-128 38.4-128 115.2v192c0 76.8 42.667 115.2 128 115.2h170.667c85.333 0 128-38.4 128-115.2v-192c0-38.4-8.533-64-29.867-85.333-17.067-21.333-46.933-29.867-93.867-29.867zM669.867 840.533c-55.467 0-64-17.067-64-51.2v-192c0-38.4 4.267-51.2 64-51.2h170.667c25.6 0 42.667 4.267 51.2 12.8s8.533 21.333 8.533 38.4v192c0 34.133-4.267 51.2-64 51.2h-166.4zM844.8-8.533h-170.667c-85.333 0-128 42.667-128 128v170.667c0 85.333 42.667 128 128 128h170.667c85.333 0 128-42.667 128-128v-170.667c0-89.6-42.667-128-128-128zM669.867 354.133c-51.2 0-64-12.8-64-64v-170.667c0-51.2 12.8-64 64-64h170.667c51.2 0 64 12.8 64 64v170.667c0 51.2-12.8 64-64 64h-170.667zM354.133 482.133c0 0 0 0 0 0h-174.933c-85.333 0-128 38.4-128 115.2v192c0 76.8 42.667 115.2 128 115.2h170.667c85.333 0 128-38.4 128-115.2v-192c0-38.4-8.533-64-29.867-85.333-17.067-21.333-46.933-29.867-93.867-29.867zM179.2 840.533c-55.467 0-59.733-12.8-59.733-51.2v-192c0-38.4 4.267-51.2 64-51.2h170.667c25.6 0 42.667 4.267 51.2 12.8 8.533 4.267 12.8 17.067 12.8 38.4v192c0 34.133-4.267 51.2-64 51.2h-174.933zM354.133-8.533h-170.667c-85.333 0-128 42.667-128 128v170.667c0 85.333 42.667 128 128 128h170.667c85.333 0 128-42.667 128-128v-170.667c-4.267-89.6-42.667-128-128-128zM179.2 354.133c-51.2 0-64-12.8-64-64v-170.667c0-51.2 12.8-64 64-64h170.667c51.2 0 64 12.8 64 64v170.667c0 51.2-12.8 64-64 64h-170.667z" />
<glyph unicode="&#xe916;" glyph-name="app_profile_add" d="M789.333 162.133h-51.2v51.2c0 17.067-12.8 34.133-34.133 34.133s-34.133-12.8-34.133-34.133v-51.2h-51.2c-17.067 0-34.133-12.8-34.133-34.133s12.8-34.133 34.133-34.133h51.2v-51.2c0-17.067 12.8-34.133 34.133-34.133s34.133 12.8 34.133 34.133v51.2h51.2c17.067 0 34.133 12.8 34.133 34.133s-17.067 34.133-34.133 34.133zM507.733 465.067c4.267 0 4.267 0 8.533 0 0 0 4.267 0 4.267 0s0 0 0 0c119.467 4.267 213.333 102.4 213.333 221.867 0 123.733-98.133 221.867-221.867 221.867-59.733 0-115.2-21.333-157.867-64s-64-98.133-64-157.867c0-123.733 93.867-217.6 217.6-221.867zM401.067 797.867c29.867 29.867 68.267 42.667 110.933 42.667 85.333 0 157.867-72.533 157.867-157.867s-64-153.6-149.333-157.867c-4.267 0-12.8 0-12.8 0-85.333 4.267-149.333 72.533-149.333 157.867-4.267 42.667 12.8 85.333 42.667 115.2zM512 59.733c-72.533 0-145.067 17.067-196.267 55.467-42.667 25.6-64 64-64 98.133 0 38.4 21.333 72.533 64 98.133 106.667 72.533 285.867 72.533 392.533 0 12.8-8.533 34.133-4.267 42.667 8.533s4.267 34.133-8.533 42.667c-128 85.333-337.067 85.333-460.8 0-59.733-38.4-89.6-93.867-89.6-149.333 0-59.733 34.133-110.933 89.6-153.6 64-42.667 145.067-64 230.4-64 17.067 0 34.133 12.8 34.133 34.133s-17.067 29.867-34.133 29.867z" />
<glyph unicode="&#xe917;" glyph-name="app_row_vertical" d="M849.067-8.533h-674.133c-81.067 0-123.733 42.667-123.733 128v170.667c0 85.333 38.4 128 123.733 128h674.133c81.067 0 119.467-42.667 119.467-128v-170.667c4.267-89.6-38.4-128-119.467-128zM174.933 354.133c-42.667 0-59.733-8.533-59.733-64v-170.667c0-55.467 17.067-64 59.733-64h674.133c42.667 0 55.467 8.533 55.467 64v170.667c0 55.467-17.067 64-55.467 64h-674.133zM849.067 477.867h-674.133c-81.067 0-123.733 42.667-123.733 128v170.667c0 85.333 38.4 128 123.733 128h674.133c81.067 0 119.467-42.667 119.467-128v-170.667c4.267-85.333-38.4-128-119.467-128zM174.933 840.533c-42.667 0-59.733-8.533-59.733-64v-170.667c0-55.467 17.067-64 59.733-64h674.133c42.667 0 55.467 8.533 55.467 64v170.667c0 55.467-17.067 64-55.467 64h-674.133z" />
<glyph unicode="&#xe918;" glyph-name="app_sort" d="M896 584.533h-768c-17.067 0-34.133 17.067-34.133 34.133s12.8 34.133 34.133 34.133h768c17.067 0 34.133-12.8 34.133-34.133 0-17.067-17.067-34.133-34.133-34.133zM768 371.2h-512c-17.067 0-34.133 12.8-34.133 34.133 0 17.067 12.8 34.133 34.133 34.133h512c17.067 0 34.133-12.8 34.133-34.133 0-17.067-17.067-34.133-34.133-34.133zM597.333 162.133h-170.667c-17.067 0-34.133 12.8-34.133 34.133s12.8 34.133 34.133 34.133h170.667c17.067 0 34.133-12.8 34.133-34.133s-17.067-34.133-34.133-34.133z" />
<glyph unicode="&#xe919;" glyph-name="app_timer_pause" d="M512 797.867c-221.867 0-405.333-183.467-405.333-405.333s183.467-405.333 405.333-405.333c17.067 0 34.133 12.8 34.133 34.133s-12.8 34.133-34.133 34.133c-187.733 0-341.333 153.6-341.333 341.333s153.6 341.333 341.333 341.333 341.333-153.6 341.333-341.333c0-17.067 12.8-34.133 34.133-34.133s34.133 12.8 34.133 34.133c-4.267 221.867-187.733 401.067-409.6 401.067zM512 648.533c-17.067 0-34.133-12.8-34.133-34.133v-213.333c0-17.067 12.8-34.133 34.133-34.133s34.133 12.8 34.133 34.133v217.6c0 17.067-17.067 29.867-34.133 29.867zM384 840.533h256c17.067 0 34.133 12.8 34.133 34.133s-17.067 29.867-34.133 29.867h-256c-17.067 0-34.133-12.8-34.133-29.867s17.067-34.133 34.133-34.133zM810.667 268.8c-17.067 0-34.133-12.8-34.133-34.133v-170.667c0-17.067 12.8-34.133 34.133-34.133s34.133 12.8 34.133 34.133v170.667c0 17.067-17.067 34.133-34.133 34.133zM682.667 268.8c-17.067 0-34.133-12.8-34.133-34.133v-170.667c0-17.067 12.8-34.133 34.133-34.133s34.133 12.8 34.133 34.133v170.667c0 17.067-17.067 34.133-34.133 34.133z" />
<glyph unicode="&#xe91a;" glyph-name="app_wallet_active" d="M324.267 520.533c-34.133 0-64-8.533-89.6-21.333-4.267 0-4.267-4.267-8.533-4.267 0 0 0 0 0 0-8.533-4.267-17.067-12.8-25.6-17.067-29.867-29.867-51.2-72.533-51.2-110.933 0-4.267 0-4.267 0-8.533v-179.2c0-85.333 76.8-153.6 170.667-153.6s170.667 68.267 170.667 153.6v187.733c0 42.667-17.067 81.067-51.2 110.933-29.867 25.6-72.533 42.667-115.2 42.667zM324.267 196.267c-46.933 0-98.133 8.533-106.667 51.2 29.867-21.333 68.267-29.867 106.667-29.867s76.8 12.8 106.667 29.867c0 0 0-4.267 0-4.267-8.533-29.867-46.933-46.933-106.667-46.933zM324.267 456.533c29.867 0 55.467-8.533 76.8-29.867 21.333-17.067 29.867-38.4 29.867-59.733 0-12.8-4.267-25.6-8.533-38.4-17.067-29.867-55.467-46.933-98.133-46.933s-81.067 17.067-98.133 46.933c-4.267 8.533-8.533 21.333-8.533 34.133v4.267c0 38.4 25.6 68.267 64 81.067 12.8 4.267 25.6 8.533 42.667 8.533zM324.267 89.6c-38.4 0-72.533 17.067-93.867 42.667 51.2-29.867 132.267-29.867 183.467 0-17.067-25.6-51.2-42.667-89.6-42.667zM896 550.4v34.133c0 123.733-76.8 213.333-192 226.133-12.8 0-25.6 4.267-34.133 4.267h-354.133c-12.8 0-25.6 0-34.133-4.267-119.467-17.067-192-102.4-192-226.133v-76.8c0-17.067 12.8-34.133 34.133-34.133s34.133 12.8 34.133 34.133v76.8c0 89.6 51.2 149.333 136.533 162.133 4.267 0 12.8 0 21.333 0h349.867c8.533 0 17.067 0 25.6 0 85.333-8.533 136.533-72.533 136.533-162.133v-25.6h-51.2c-12.8 0-21.333 0-29.867-4.267-17.067-4.267-34.133-12.8-46.933-25.6-25.6-25.6-34.133-55.467-34.133-89.6 4.267-55.467 55.467-102.4 115.2-102.4v0h42.667v-25.6c0-98.133-64-162.133-162.133-162.133h-98.133c-17.067 0-34.133-12.8-34.133-34.133s12.8-34.133 34.133-34.133h98.133c132.267 0 226.133 93.867 226.133 226.133v34.133c21.333 12.8 38.4 34.133 38.4 64v81.067c8.533 29.867-8.533 51.2-29.867 64zM789.333 401.067c-25.6 0-51.2 21.333-51.2 42.667 0 12.8 4.267 21.333 8.533 29.867 0 4.267 4.267 4.267 4.267 8.533 4.267 4.267 8.533 4.267 12.8 8.533 0 0 0 0 4.267 0 4.267 4.267 12.8 4.267 17.067 4.267h81.067c4.267 0 8.533-4.267 8.533-8.533v-81.067c0-4.267-4.267-8.533-8.533-8.533v0h-76.8z" />
<glyph unicode="&#xe91b;" glyph-name="app_wallet_unactive" d="M512 25.6c-234.667 0-422.4 187.733-422.4 422.4 0 93.867 29.867 179.2 85.333 256 8.533 12.8 29.867 17.067 46.933 4.267 12.8-8.533 17.067-29.867 4.267-46.933-46.933-59.733-72.533-136.533-72.533-213.333 0-196.267 162.133-358.4 358.4-358.4s358.4 162.133 358.4 358.4c0 196.267-162.133 358.4-358.4 358.4-17.067 0-34.133 12.8-34.133 34.133s12.8 34.133 34.133 34.133c234.667 0 422.4-187.733 422.4-422.4s-187.733-426.667-422.4-426.667zM512 140.8c-170.667 0-307.2 136.533-307.2 307.2 0 17.067 12.8 34.133 34.133 34.133s34.133-12.8 34.133-34.133c0-132.267 106.667-243.2 243.2-243.2s243.2 106.667 243.2 243.2c0 132.267-106.667 243.2-243.2 243.2-17.067 0-34.133 12.8-34.133 34.133s12.8 34.133 34.133 34.133c170.667 0 307.2-136.533 307.2-307.2-4.267-174.933-140.8-311.467-311.467-311.467zM512 260.267c-17.067 0-34.133 12.8-34.133 29.867s12.8 34.133 34.133 34.133c68.267 0 123.733 55.467 123.733 123.733s-55.467 123.733-123.733 123.733c-17.067 0-34.133 12.8-34.133 34.133 0 17.067 12.8 34.133 34.133 34.133 102.4 0 187.733-85.333 187.733-187.733 0-106.667-85.333-192-187.733-192z" />
<glyph unicode="&#xe91e;" glyph-name="app_finding_lucky" d="M861.867 593.067c-12.8 12.8-25.6 12.8-34.133 17.067v85.333c0 81.067-64 157.867-209.067 157.867h-213.333c-145.067 0-209.067-81.067-209.067-157.867v-85.333c-8.533 0-21.333-4.267-29.867-12.8-29.867-25.6-42.667-81.067-42.667-170.667v-119.467c0-217.6 85.333-311.467 281.6-311.467h213.333c196.267 0 281.6 93.867 281.6 311.467v119.467c0 89.6-12.8 140.8-38.4 166.4zM260.267 695.467c0 55.467 55.467 93.867 145.067 93.867h213.333c89.6 0 145.067-38.4 145.067-93.867v-251.733c0-17.067-17.067-34.133-29.867-38.4-12.8-8.533-29.867-17.067-51.2-21.333 0 34.133-8.533 72.533-34.133 106.667-21.333 29.867-64 68.267-140.8 68.267s-119.467-38.4-140.8-68.267c-25.6-34.133-34.133-72.533-34.133-106.667-21.333 4.267-38.4 12.8-51.2 21.333-8.533 8.533-29.867 21.333-29.867 38.4v251.733zM401.067 375.467c0 21.333 4.267 51.2 21.333 72.533 21.333 25.6 51.2 42.667 89.6 42.667s68.267-12.8 89.6-42.667c17.067-21.333 21.333-51.2 21.333-72.533-12.8 0-29.867 4.267-42.667 8.533s-38.4 8.533-68.267 8.533c-29.867 0-55.467-4.267-68.267-8.533s-25.6-8.533-42.667-8.533zM836.267 302.933c0-183.467-55.467-247.467-217.6-247.467h-213.333c-162.133 0-217.6 64-217.6 247.467v119.467c0 42.667 4.267 72.533 8.533 89.6v-72.533c0-34.133 21.333-68.267 55.467-93.867 34.133-21.333 76.8-34.133 115.2-38.4 4.267 0 4.267 0 8.533 0s4.267 0 8.533 0c29.867 0 55.467 4.267 81.067 12.8 12.8 4.267 76.8 4.267 89.6 0 25.6-8.533 59.733-12.8 89.6-12.8 0 0 4.267 0 4.267 0 4.267 0 4.267 0 8.533 0 42.667 4.267 85.333 17.067 115.2 38.4 34.133 25.6 55.467 55.467 55.467 93.867v76.8c4.267-17.067 8.533-46.933 8.533-98.133v-115.2zM652.8 563.2c55.467 0 102.4 46.933 102.4 98.133 0 55.467-46.933 102.4-102.4 102.4s-98.133-46.933-98.133-102.4c-4.267-51.2 42.667-98.133 98.133-98.133zM652.8 699.733c21.333 0 38.4-17.067 38.4-38.4s-17.067-34.133-38.4-34.133-34.133 17.067-34.133 34.133c-4.267 21.333 12.8 38.4 34.133 38.4z" />
<glyph unicode="&#xe91f;" glyph-name="app_ethereum_symbol" d="M521.523 691.61l-163.84-235.52 163.84 56.32zM512 960c-281.98-1.898-510.102-230.020-512-512 0-282.77 229.23-512 512-512s512 229.23 512 512c0 282.77-229.23 512-512 512zM315.034 478.72l170.65 253.798c4.127 5.521 10.617 8.772 17.51 8.772s13.383-3.251 17.51-8.772l170.496-253.798c3.469-5.142 5.010-11.343 4.352-17.51-0.427-7.054-6.053-12.68-13.107-13.107l-170.445-87.603c-5.015-4.379-12.495-4.379-17.51 0l-170.701 87.501-13.107 13.107c0 4.403 4.352 13.158 4.352 17.613zM695.706 360.55l-170.598-214.63c-4.217-5.411-10.652-8.628-17.51-8.755-6.585 1.091-12.687 4.142-17.51 8.755l-170.65 214.579c-3.961 6.555-5.501 14.29-4.352 21.862 4.352 8.755 8.755 13.107 17.51 13.107 4.352 0 8.755 0 8.755-4.352l161.894-83.149 161.894 83.149c8.909 3.292 18.894 1.637 26.266-4.352 13.107-4.352 13.107-17.51 4.352-26.266l-0.051 0.051zM657.766 475.392l-163.84 61.44v-143.36zM404.070 326.758l112.64-138.24v87.040c-5.12 0-10.24 0-10.24 5.12l-102.4 46.080z" />
<glyph unicode="&#xe920;" glyph-name="app_usdt_symbol" d="M575.235 507.4v-85.044c-3.586-0.306-23.092-1.944-61.954-1.944-32.308 0-55.756 1.381-63.948 1.944v85.044c-125.029-5.531-218.42-27.288-218.42-53.35s93.338-47.875 218.42-53.403v0.103c8.089-0.409 30.924-1.331 63.436-1.331 40.653 0 58.932 1.125 62.466 1.331v-0.050c124.825 5.581 218.009 27.39 217.956 53.35 0 26.009-93.131 47.769-217.956 53.35zM512 960c-282.778 0-512-229.171-512-512s229.274-512 512-512c282.726 0 512 229.222 512 512s-229.222 512-512 512zM575.232 380.006v-243.968h-125.952v243.968c-141.517 6.502-248.013 34.56-248.013 68.147s106.445 61.645 248.013 68.147v76.083h-174.182v116.070h474.266v-116.070h-174.182v-76.186c141.363-6.502 247.603-34.56 247.603-68.096s-106.24-61.594-247.552-68.096z" />
<glyph unicode="&#xe921;" glyph-name="app_bitcoin_symbol" d="M512 960c-282.77 0-512-229.23-512-512s229.23-512 512-512c282.77 0 512 229.23 512 512s-229.23 512-512 512zM469.453 746.701h85.299v-85.658c79.36-1.843 126.669-41.728 126.669-106.24 0.046-45.164-32.644-83.707-77.21-91.034v-5.12c54.644-2.149 97.791-47.151 97.639-101.837 0-74.65-56.32-121.958-147.098-122.112v-85.299h-85.299v85.197h-106.752v426.803h106.752v85.299zM452.045 593.101v-108.442h67.174c48.128 0 74.291 19.763 74.291 54.067s-24.474 54.374-67.072 54.374h-74.394zM452.045 424.141v-121.088h79.565c51.507 0 79.206 21.606 79.206 61.44 0 39.014-28.723 59.597-81.408 59.597l-77.363 0.051z" />
<glyph unicode="&#xe922;" glyph-name="app_ic98" d="M249.813 846.081c-49.431-0.040-97.742-14.664-138.826-42.026-41.084-27.36-73.098-66.229-91.996-111.695-18.898-45.464-23.831-95.484-14.177-143.74s33.461-92.579 68.414-127.37c34.954-34.792 79.484-58.489 127.963-68.099 48.48-9.608 98.733-4.698 144.41 14.113s84.726 50.675 112.214 91.57c27.487 40.893 42.18 88.979 42.221 138.181-0.037 66.045-26.411 129.376-73.329 176.076-46.919 46.702-110.543 72.954-176.895 72.989v0zM249.813 450.306c-29.18 0-57.703 8.612-81.966 24.749-24.261 16.137-43.171 39.073-54.335 65.908-11.166 26.833-14.086 56.361-8.392 84.847s19.748 54.651 40.382 75.186c20.636 20.537 46.924 34.521 75.544 40.184s58.284 2.752 85.24-8.366c26.958-11.117 49.998-29.943 66.205-54.095 16.209-24.151 24.856-52.546 24.852-81.589-0.132-38.905-15.719-76.176-43.357-103.683-27.64-27.507-65.087-43.015-104.172-43.141zM986.867 633.182c0.080-35.617-8.965-70.665-26.279-101.834-26.713 21.64-57.117 38.321-89.761 49.245 8.705 16.178 13.287 34.236 13.344 52.588 0 29.384-11.726 57.565-32.601 78.343s-49.188 32.451-78.709 32.451-57.833-11.674-78.709-32.451c-20.874-20.778-32.601-48.959-32.601-78.343-0.142-18.377 4.453-36.482 13.344-52.588-32.648-10.929-63.060-27.61-89.782-49.245-17.82 32.414-26.848 68.891-26.194 105.834s10.969 73.080 29.927 104.847c18.958 31.768 45.903 58.071 78.184 76.317 32.279 18.245 68.779 27.804 105.9 27.734 56.712-0.060 111.086-22.508 151.192-62.421 40.106-39.911 62.671-94.029 62.744-150.478v0zM772.931 547.021c-49.448 0.040-97.796-14.514-138.933-41.824s-73.215-66.148-92.177-111.603c-18.961-45.455-23.956-95.486-14.354-143.768 9.604-48.28 33.375-92.642 68.308-127.478 34.933-34.834 79.457-58.576 127.944-68.223s98.761-4.767 144.463 14.025c45.702 18.79 84.778 50.649 112.29 91.545s42.223 88.994 42.272 138.212c-0.066 65.97-26.393 129.226-73.213 175.915-46.822 46.69-110.323 73.009-176.598 73.196v0zM772.931 151.519c-29.142 0.035-57.617 8.674-81.826 24.82s-43.063 39.075-54.178 65.889c-11.115 26.813-13.991 56.304-8.266 84.744 5.726 28.442 19.797 54.553 40.433 75.033s46.91 34.408 75.499 40.023c28.591 5.615 58.21 2.664 85.115-8.477 26.905-11.143 49.885-29.978 66.036-54.122s24.743-52.512 24.694-81.519c-0.116-38.865-15.707-76.1-43.357-103.541s-65.103-42.85-104.149-42.85zM463.749 262.246c0-56.495-22.546-110.676-62.68-150.624s-94.566-62.39-151.325-62.39c-56.757 0-111.189 22.442-151.323 62.39s-62.682 94.128-62.682 150.624h102.695c0-29.385 11.728-57.566 32.602-78.344s49.187-32.451 78.707-32.451c29.522 0 57.834 11.674 78.709 32.451s32.602 48.959 32.602 78.344h102.694z" />
<glyph unicode="&#xe923;" glyph-name="app_logo98insignts" d="M231.351 798.563c-74.295 0-134.438-60.143-134.438-134.438s60.143-134.438 134.438-134.438c74.295 0 134.438 60.143 134.438 134.438 0 0 0 0 0 0 0 74.295-60.143 134.438-134.438 134.438zM712.497 522.611c-74.295 0-134.438-60.143-134.438-134.438s60.143-134.438 134.438-134.438c74.295 0 134.438 60.143 134.438 134.438s-60.143 134.438-134.438 134.438zM907.078 511.998c60.143-95.522 42.454-215.808-38.916-290.103l17.689-21.227 17.689 14.151 120.287-155.665-70.757-56.605-120.287 155.665 17.689 14.151-17.689 21.227c-109.673-67.219-251.187-35.378-318.406 74.295s-35.378 251.187 74.295 318.406c109.673 67.219 251.187 35.378 318.406-74.295zM128.753 356.333c-3.538-56.605 38.916-106.135 95.522-109.673s106.135 38.916 109.673 95.522v10.614h95.522c0-106.135-88.446-194.581-198.119-194.581s-198.119 88.446-198.119 198.119h95.522zM231.351 894.085c126.089 0 227.905-100.556 229.929-226.146l0.031-3.813c0-127.362-102.597-229.96-229.96-229.96s-229.96 102.597-229.96 229.96c0 127.362 102.597 229.96 229.96 229.96zM712.497 894.085c109.673 0 198.119-88.446 198.119-198.119 0-31.841-7.076-63.681-24.765-95.522-24.765 21.227-53.068 35.378-81.37 45.992 7.076 14.151 10.614 31.841 10.614 49.53 0 56.605-45.992 102.597-102.597 102.597s-102.597-45.992-102.597-102.597c0-17.689 3.538-31.841 10.614-49.53-28.303-10.614-56.605-24.765-81.37-45.992-53.068 95.522-17.689 215.808 77.833 265.338 31.841 21.227 63.681 28.303 95.522 28.303z" />
<glyph unicode="&#xe924;" glyph-name="app_saros" d="M512-12.8c-256 0-460.8 209.067-460.8 460.8s204.8 460.8 460.8 460.8 456.533-209.067 456.533-460.8c0-251.733-204.8-460.8-456.533-460.8zM512 844.8c-217.6 0-392.533-174.933-392.533-392.533s174.933-396.8 392.533-396.8 392.533 174.933 392.533 396.8c0 213.333-174.933 392.533-392.533 392.533zM512 157.867c-157.867 0-290.133 128-290.133 290.133s128 290.133 290.133 290.133c157.867 0 290.133-128 290.133-290.133s-132.267-290.133-290.133-290.133zM512 674.133c-123.733 0-221.867-102.4-221.867-226.133s102.4-226.133 221.867-226.133c123.733 0 221.867 102.4 221.867 226.133s-98.133 226.133-221.867 226.133z" />
<glyph unicode="&#xe925;" glyph-name="app_chest" d="M925.867 576c0 0 4.267 0 0 0 4.267 0 0 0 0 0 0 25.6 0 46.933-4.267 68.267-12.8 89.6-76.8 200.533-324.267 200.533h-170.667c-247.467 0-315.733-110.933-324.267-200.533-4.267-21.333-4.267-42.667-4.267-68.267 0 0 0 0 0 0s0 0 0 0c0-4.267 0-8.533 0-12.8v-396.8c17.067-123.733 89.6-136.533 209.067-136.533 12.8 0 21.333 0 34.133 0h341.333c140.8 0 226.133 0 243.2 140.8v392.533c4.267 4.267 0 8.533 0 12.8zM426.667 780.8h170.667c162.133 0 251.733-46.933 264.533-145.067 0-8.533 0-17.067 4.267-25.6h-260.267c0 46.933-38.4 85.333-81.067 85.333-46.933 0-81.067-38.4-81.067-85.333h-277.333c0 8.533 0 17.067 4.267 25.6 0 34.133 12.8 145.067 256 145.067zM541.867 605.867v-38.4c0-12.8-8.533-21.333-21.333-21.333s-21.333 8.533-21.333 21.333v38.4c0 12.8 8.533 21.333 21.333 21.333s21.333-8.533 21.333-21.333zM682.667 93.867h-341.333c-149.333 0-170.667 4.267-179.2 76.8v371.2h281.6c12.8-34.133 42.667-59.733 76.8-59.733 38.4 0 68.267 25.6 76.8 59.733h264.533v-371.2c-8.533-72.533-25.6-76.8-179.2-76.8zM622.933 302.933c4.267 8.533 4.267 17.067 4.267 25.6 0 38.4-34.133 68.267-72.533 68.267h-4.267v8.533c0 17.067-12.8 34.133-34.133 34.133s-34.133-12.8-34.133-34.133v-4.267h-55.467c-17.067 0-34.133-12.8-34.133-34.133 0-17.067 12.8-29.867 29.867-29.867v-85.333c-17.067 0-29.867-12.8-29.867-29.867s12.8-34.133 34.133-34.133h29.867c0 0 0 0 0 0h29.867v-4.267c0-17.067 12.8-34.133 34.133-34.133s34.133 12.8 34.133 34.133v4.267h17.067c42.667 0 76.8 29.867 76.8 68.267-4.267 17.067-12.8 34.133-25.6 46.933zM563.2 328.533c0-4.267-4.267-4.267-8.533-4.267h-68.267v12.8h68.267c4.267 0 8.533-4.267 8.533-8.533zM571.733 247.467h-46.933c0 0 0 0 0 0s0 0 0 0h-21.333c0 0 0 0 0 0h-4.267v12.8h55.467c0 0 0 0 0 0h12.8c8.533 0 12.8-4.267 12.8-4.267 0-4.267-4.267-8.533-8.533-8.533z" />
<glyph unicode="&#xe926;" glyph-name="app_solana_claim" d="M384 396.8c4.267 0 4.267 0 0 0h204.8c4.267 0 4.267 0 4.267 4.267l38.4 38.4c0 0 0 0 0 4.267 0 0 0 0 0 4.267 0 0 0 0 0 0s0 0-4.267 0h-204.8c-4.267 0-4.267 0-4.267-4.267l-34.133-42.667c0 0 0 0 0-4.267 0 4.267 0 0 0 0s0 0 0 0zM640 294.4c-4.267 0-4.267 0 0 0h-204.8c-4.267 0-4.267 0-4.267-4.267l-46.933-38.4c0 0 0 0 0-4.267 0 0 0 0 0-4.267 0 0 0 0 0 0s0 0 4.267 0h204.8c0 0 4.267 0 4.267 0s0 0 4.267 0l38.4 38.4c0 0 0 0 0 4.267s0 4.267 0 8.533c0 0 0 0 0 0zM597.333 366.933c0 0-4.267 4.267-4.267 4.267h-204.8c0 0 0 0-4.267 0 0 0 0 0 0 0s0 0 0-4.267 0 0 0-4.267l38.4-38.4c0 0 4.267-4.267 4.267-4.267h204.8c0 0 0 0 4.267 0 0 0 0 0 0 0s0 0 0 4.267c0 0 0 0 0 4.267l-38.4 38.4zM512 691.2c-25.6 0-51.2-4.267-72.533-12.8l-42.667 64h12.8c12.8 0 21.333 4.267 29.867 17.067 21.333 25.6 46.933 42.667 72.533 42.667 21.333 0 42.667-12.8 55.467-38.4 8.533-12.8 21.333-17.067 34.133-17.067h21.333l-12.8-21.333c-8.533-17.067-4.267-34.133 8.533-42.667 17.067-8.533 34.133-4.267 42.667 8.533l38.4 64c8.533 12.8 8.533 25.6 0 38.4s-21.333 21.333-34.133 21.333h-51.2c-25.6 34.133-59.733 55.467-98.133 55.467-42.667 4.267-85.333-17.067-119.467-55.467h-42.667c-17.067-8.533-29.867-12.8-34.133-25.6-8.533-12.8-8.533-25.6 0-38.4l59.733-98.133c-119.467-72.533-200.533-230.4-200.533-366.933 0-162.133 119.467-256 332.8-256 209.067 0 332.8 93.867 332.8 256 0 183.467-149.333 405.333-332.8 405.333zM512 93.867c-123.733 0-264.533 34.133-264.533 192 0 153.6 123.733 341.333 264.533 341.333s264.533-187.733 264.533-341.333c0-157.867-140.8-192-264.533-192z" />
<glyph unicode="&#xe927;" glyph-name="app_insights" d="M878.933 170.667c38.4 38.4 59.733 89.6 59.733 149.333 0 119.467-93.867 213.333-213.333 213.333s-213.333-93.867-213.333-213.333 93.867-213.333 213.333-213.333c38.4 0 72.533 8.533 102.4 25.6 0-4.267 4.267-4.267 4.267-8.533l51.2-51.2c4.267-4.267 12.8-8.533 21.333-8.533s17.067 4.267 21.333 8.533c12.8 12.8 12.8 34.133 0 46.933l-46.933 51.2zM576 320c0 81.067 68.267 149.333 149.333 149.333s149.333-68.267 149.333-149.333c0-81.067-68.267-149.333-149.333-149.333s-149.333 68.267-149.333 149.333zM584.533 546.133c17.067 4.267 25.6 25.6 21.333 38.4-8.533 25.6-4.267 68.267 21.333 102.4 21.333 34.133 55.467 51.2 98.133 51.2s76.8-17.067 98.133-46.933c25.6-34.133 29.867-76.8 21.333-102.4-4.267-17.067 4.267-34.133 21.333-38.4 4.267 0 8.533 0 8.533 0 12.8 0 25.6 8.533 29.867 21.333 12.8 42.667 8.533 106.667-29.867 162.133-21.333 25.6-68.267 68.267-149.333 68.267s-128-38.4-153.6-72.533c-38.4-55.467-42.667-119.467-29.867-162.133 8.533-17.067 25.6-25.6 42.667-21.333zM448 285.867c-17.067 0-34.133-12.8-34.133-34.133 0-46.933-46.933-93.867-119.467-93.867s-119.467 51.2-119.467 93.867c0 17.067-12.8 34.133-34.133 34.133s-34.133-12.8-34.133-34.133c0-85.333 81.067-162.133 179.2-162.133s179.2 72.533 179.2 162.133c12.8 21.333 0 34.133-17.067 34.133zM298.667 362.667c119.467 0 213.333 93.867 213.333 213.333s-93.867 213.333-213.333 213.333-213.333-93.867-213.333-213.333c0-119.467 93.867-213.333 213.333-213.333zM298.667 725.333c81.067 0 149.333-68.267 149.333-149.333s-68.267-149.333-149.333-149.333-149.333 68.267-149.333 149.333c0 81.067 68.267 149.333 149.333 149.333z" />
<glyph unicode="&#xe928;" glyph-name="app_audit_reports" d="M512-8.533c-46.933 0-93.867 12.8-128 38.4l-183.467 136.533c-46.933 38.4-85.333 110.933-85.333 170.667v320c0 64 46.933 136.533 110.933 157.867l213.333 81.067c0 0 0 0 0 0 42.667 17.067 106.667 17.067 153.6 0l213.333-81.067c59.733-21.333 110.933-93.867 110.933-157.867v-315.733c0-59.733-38.4-136.533-85.333-170.667l-192-140.8c-34.133-25.6-81.067-38.4-128-38.4zM460.8 836.267l-213.333-81.067c-38.4-12.8-68.267-59.733-68.267-98.133v-315.733c0-38.4 29.867-98.133 59.733-119.467l183.467-136.533c51.2-38.4 132.267-38.4 179.2 0l183.467 136.533c34.133 25.6 59.733 81.067 59.733 119.467v315.733c0 38.4-29.867 85.333-68.267 98.133l-213.333 81.067c-25.6 8.533-76.8 8.533-102.4 0zM456.533 354.133c-8.533 0-17.067 4.267-21.333 8.533l-68.267 68.267c-12.8 12.8-12.8 34.133 0 46.933s34.133 12.8 46.933 0l46.933-46.933 162.133 162.133c12.8 12.8 34.133 12.8 46.933 0s12.8-34.133 0-46.933l-192-183.467c-8.533-8.533-12.8-8.533-21.333-8.533z" />
<glyph unicode="&#xe929;" glyph-name="app_partner_program" d="M960 520.533l-307.2 290.133c-12.8 12.8-34.133 12.8-46.933 0-4.267-4.267-8.533-12.8-8.533-21.333-25.6-4.267-55.467-8.533-81.067-21.333-25.6 17.067-55.467 21.333-81.067 21.333-4.267 0-8.533 0-12.8 0 0 8.533-4.267 12.8-8.533 21.333-8.533 12.8-29.867 12.8-42.667 0l-307.2-290.133c-12.8-12.8-12.8-34.133 0-46.933s34.133-12.8 46.933 0v0c0-8.533 0-17.067 4.267-29.867 4.267-25.6 12.8-59.733 34.133-85.333 4.267-8.533 25.6-25.6 46.933-46.933s51.2-51.2 81.067-85.333c64-64 136.533-132.267 183.467-179.2 17.067-17.067 42.667-17.067 55.467-12.8 17.067 4.267 29.867 12.8 42.667 25.6 12.8 8.533 21.333 21.333 25.6 38.4 17.067 4.267 34.133 8.533 46.933 17.067 17.067 12.8 34.133 38.4 38.4 64 4.267 0 8.533 0 12.8 4.267 17.067 8.533 34.133 21.333 42.667 34.133s17.067 25.6 17.067 42.667c21.333 4.267 42.667 21.333 51.2 34.133s17.067 25.6 21.333 38.4c0 4.267 0 4.267 0 8.533 42.667 21.333 68.267 55.467 81.067 89.6 8.533 17.067 12.8 34.133 17.067 46.933l4.267-4.267c12.8-12.8 34.133-12.8 46.933 0 8.533 17.067 8.533 38.4-4.267 46.933zM742.4 332.8c-8.533-8.533-17.067-12.8-25.6-12.8-29.867 25.6-51.2 46.933-68.267 68.267-4.267 4.267-8.533 8.533-12.8 12.8-12.8 12.8-21.333 25.6-34.133 34.133-12.8 12.8-34.133 8.533-46.933-4.267s-8.533-34.133 4.267-46.933c8.533-4.267 12.8-12.8 25.6-25.6 4.267-4.267 8.533-8.533 17.067-17.067 17.067-17.067 42.667-42.667 72.533-72.533 0-4.267-4.267-8.533-8.533-17.067-4.267-4.267-8.533-8.533-12.8-8.533 0 0-4.267 0-8.533 0l-149.333 140.8c-12.8 12.8-34.133 12.8-42.667 0-12.8-12.8-12.8-34.133 0-46.933l145.067-145.067c0-8.533-4.267-17.067-12.8-25.6-4.267-4.267-12.8-4.267-12.8-8.533-4.267 0-4.267 0-4.267 0l-153.6 153.6c-12.8 12.8-34.133 12.8-46.933 0s-12.8-34.133 0-46.933v0l153.6-153.6c0-4.267-4.267-8.533-8.533-12.8s-12.8-8.533-17.067-8.533c0 0 0 0 0 0-46.933 46.933-119.467 115.2-179.2 174.933-29.867 29.867-59.733 59.733-81.067 81.067-21.333 25.6-38.4 38.4-38.4 42.667-12.8 17.067-17.067 38.4-21.333 59.733 0 21.333-4.267 29.867-4.267 42.667 0 0 0 0 0 0 0 8.533 0 21.333-4.267 29.867 0 4.267 0 4.267-4.267 8.533l204.8 196.267c17.067 0 38.4 4.267 59.733 4.267 4.267 0 4.267 0 8.533 0-34.133-34.133-68.267-72.533-102.4-128v0 0c-17.067-25.6-25.6-51.2-21.333-72.533 4.267-25.6 12.8-42.667 29.867-55.467 29.867-21.333 76.8-25.6 106.667 4.267 12.8 12.8 25.6 29.867 38.4 46.933 4.267 4.267 4.267 8.533 8.533 8.533 12.8 12.8 21.333 25.6 25.6 29.867 29.867-29.867 51.2-51.2 72.533-68.267 4.267-4.267 12.8-8.533 17.067-12.8 12.8-8.533 17.067-17.067 25.6-21.333 0 0 4.267 0 4.267-4.267 21.333-21.333 85.333-81.067 115.2-110.933-8.533-4.267-8.533-8.533-12.8-12.8zM857.6 533.333c0-12.8-4.267-42.667-17.067-76.8-12.8-25.6-29.867-46.933-51.2-59.733-29.867 29.867-93.867 89.6-110.933 106.667 0 0 0 0-4.267 0-4.267 4.267-12.8 12.8-21.333 21.333s-12.8 12.8-17.067 17.067c-17.067 17.067-42.667 38.4-72.533 68.267-12.8 12.8-38.4 29.867-68.267 12.8-21.333-12.8-38.4-34.133-51.2-51.2-4.267-4.267-8.533-8.533-8.533-12.8-12.8-12.8-21.333-25.6-29.867-38.4-4.267-4.267-17.067-4.267-25.6 0-4.267 4.267-4.267 4.267-4.267 12.8 0 4.267 0 17.067 12.8 34.133 98.133 162.133 221.867 170.667 264.533 157.867l204.8-192c0 0 0 0 0 0z" />
<glyph unicode="&#xe92a;" glyph-name="app_wallet_intergration" d="M827.733 682.667l29.867 25.6c12.8 12.8 12.8 34.133 0 46.933s-34.133 12.8-46.933 0l-29.867-25.6c-89.6 72.533-226.133 68.267-311.467-12.8l-85.333-81.067c0-8.533-4.267-12.8-4.267-21.333s4.267-17.067 8.533-21.333l285.867-294.4c4.267-4.267 12.8-8.533 21.333-8.533 0 0 0 0 0 0 8.533 0 17.067 4.267 21.333 8.533l85.333 81.067c46.933 42.667 72.533 102.4 72.533 166.4 0 46.933-17.067 93.867-46.933 136.533zM759.467 418.133l-59.733-55.467-243.2 251.733 59.733 59.733c68.267 68.267 179.2 64 247.467-4.267 29.867-38.4 46.933-81.067 46.933-128s-17.067-89.6-51.2-123.733zM354.133 558.933c-12.8 12.8-34.133 12.8-46.933 0l-85.333-81.067c-46.933-42.667-72.533-102.4-72.533-166.4 0-51.2 17.067-102.4 46.933-145.067l-29.867-25.6c-12.8-12.8-12.8-34.133 0-46.933 4.267-8.533 12.8-8.533 21.333-8.533s17.067 4.267 21.333 8.533l29.867 25.6c42.667-34.133 93.867-51.2 145.067-51.2 59.733 0 119.467 21.333 166.4 68.267l85.333 81.067c12.8 12.8 12.8 34.133 0 46.933l-281.6 294.4zM512 183.467c-68.267-64-179.2-64-247.467 4.267-34.133 34.133-51.2 76.8-46.933 123.733 0 46.933 21.333 89.6 51.2 119.467l64 59.733 243.2-251.733-64-55.467z" />
<glyph unicode="&#xe92b;" glyph-name="app_starship" d="M577.749 64c-0.913-0.009-1.796 0.32-2.492 0.917-0.653 0.542-1.097 1.293-1.263 2.129-0.166 0.832-0.043 1.698 0.35 2.453l102.118 206.438-164.386 357.544-164.338-357.544 102.121-206.438c0.375-0.759 0.486-1.621 0.324-2.449-0.166-0.828-0.602-1.579-1.242-2.133-0.695-0.593-1.579-0.917-2.492-0.917-0.777-0.009-1.54 0.222-2.185 0.661l-229.299 161.591c-0.737 0.495-1.271 1.246-1.504 2.103-0.233 0.862-0.15 1.775 0.233 2.577l294.822 641.47c0.299 0.674 0.789 1.246 1.408 1.648 0.614 0.401 1.335 0.615 2.074 0.615s1.459-0.214 2.074-0.615c0.619-0.402 1.109-0.974 1.408-1.648l294.822-641.722c0.384-0.806 0.465-1.719 0.235-2.581-0.235-0.858-0.768-1.604-1.506-2.103l-229.094-161.335c-0.644-0.439-1.408-0.67-2.189-0.661v0z" />
<glyph unicode="&#xe92c;" glyph-name="app_term_of_service" d="M742.4 294.4l-72.533-68.267-21.333 21.333c-12.8 12.8-34.133 12.8-46.933 0s-12.8-34.133 0-46.933l42.667-42.667c4.267-4.267 12.8-8.533 21.333-8.533s17.067 4.267 21.333 8.533l98.133 89.6c12.8 12.8 12.8 34.133 0 46.933-8.533 8.533-29.867 8.533-42.667 0zM861.867 98.133c4.267 4.267 8.533 8.533 12.8 17.067 21.333 34.133 29.867 72.533 29.867 110.933 0 115.2-93.867 213.333-213.333 213.333-46.933 0-93.867-17.067-132.267-46.933-51.2-38.4-81.067-102.4-81.067-166.4 0-38.4 12.8-76.8 29.867-110.933 38.4-64 106.667-102.4 183.467-102.4 46.933 0 89.6 17.067 123.733 42.667l55.467-55.467c4.267-4.267 12.8-8.533 21.333-8.533s17.067 4.267 21.333 8.533c12.8 12.8 12.8 34.133 0 46.933l-51.2 51.2zM691.2 76.8c-51.2 0-98.133 25.6-128 72.533-12.8 21.333-21.333 51.2-21.333 76.8 0 46.933 21.333 89.6 55.467 115.2 25.6 21.333 59.733 34.133 93.867 34.133 81.067 0 149.333-68.267 149.333-149.333 0-25.6-8.533-55.467-21.333-76.8-8.533-12.8-17.067-25.6-29.867-34.133-25.6-25.6-59.733-38.4-98.133-38.4zM256 460.8h213.333c17.067 0 34.133 12.8 34.133 34.133s-12.8 34.133-34.133 34.133h-213.333c-17.067 0-34.133-12.8-34.133-34.133s17.067-34.133 34.133-34.133zM256 631.467h298.667c17.067 0 34.133 12.8 34.133 34.133s-17.067 29.867-34.133 29.867h-298.667c-17.067 0-34.133-17.067-34.133-34.133s17.067-29.867 34.133-29.867zM682.667 908.8h-341.333c-157.867 0-247.467-89.6-247.467-247.467v-426.667c0-157.867 89.6-247.467 247.467-247.467h149.333c17.067 0 34.133 12.8 34.133 34.133s-12.8 34.133-34.133 34.133h-149.333c-123.733 0-179.2 59.733-179.2 179.2v426.667c0 123.733 59.733 179.2 179.2 179.2h341.333c123.733 0 179.2-59.733 179.2-179.2v-234.667c0-17.067 12.8-34.133 34.133-34.133s34.133 12.8 34.133 34.133v234.667c0 157.867-89.6 247.467-247.467 247.467z" />
<glyph unicode="&#xe92d;" glyph-name="app_launch_pool" d="M921.6 797.867c-4.267 29.867-34.133 51.2-64 51.2-42.667 0-153.6-4.267-226.133-38.4-42.667-21.333-85.333-68.267-119.467-132.267-209.067-106.667-209.067-132.267-213.333-149.333 0-51.2 162.133-128 170.667-132.267 0 0 4.267 0 4.267 0s4.267 0 4.267-4.267c0 0 0-4.267 0-4.267s89.6-187.733 145.067-187.733c0 0 0 0 4.267 0 17.067 0 38.4 4.267 140.8 247.467 25.6 17.067 55.467 34.133 85.333 59.733 72.533 72.533 81.067 221.867 68.267 290.133zM857.6 785.067c8.533-46.933 0-132.267-21.333-187.733-128 21.333-145.067 81.067-166.4 157.867 51.2 21.333 128 29.867 187.733 29.867zM529.067 448c-4.267 0-12.8 0-17.067 0 0 0 0 0 0 4.267s0 4.267 0 8.533c4.267 93.867 51.2 200.533 102.4 256 21.333-68.267 55.467-140.8 170.667-170.667l-59.733-46.933c0 0 0 0 0 0-76.8-46.933-136.533-51.2-196.267-51.2zM375.467 529.067c21.333 12.8 51.2 34.133 89.6 55.467-8.533-29.867-17.067-68.267-21.333-102.4-21.333 12.8-51.2 29.867-68.267 46.933zM618.667 281.6c-17.067 21.333-38.4 59.733-59.733 85.333 38.4 4.267 81.067 17.067 115.2 34.133-17.067-46.933-38.4-93.867-55.467-119.467zM388.267 247.467l38.4 38.4c12.8 12.8 12.8 34.133 0 46.933s-34.133 12.8-46.933 0l-38.4-38.4c-12.8-12.8-12.8-34.133 0-46.933 4.267-4.267 12.8-8.533 21.333-8.533s17.067 0 25.6 8.533zM759.467 328.533c-17.067-4.267-25.6-21.333-21.333-38.4 29.867-119.467-51.2-170.667-123.733-196.267-157.867-51.2-392.533 0-448 132.267-17.067 42.667-17.067 81.067 0 115.2 21.333 38.4 64 64 115.2 76.8 17.067 4.267 29.867 21.333 25.6 38.4s-21.333 29.867-38.4 25.6c-72.533-12.8-128-51.2-157.867-106.667-17.067-34.133-34.133-93.867-4.267-170.667 51.2-123.733 217.6-187.733 375.467-187.733 55.467 0 106.667 8.533 153.6 21.333 132.267 42.667 196.267 145.067 166.4 273.067-8.533 12.8-25.6 21.333-42.667 17.067z" />
<glyph unicode="&#xe92e;" glyph-name="app_launch_pad" d="M921.6 797.867c-4.267 29.867-34.133 51.2-64 51.2 0 0 0 0 0 0-38.4 0-162.133-4.267-238.933-42.667-46.933-21.333-89.6-72.533-123.733-136.533-221.867-115.2-221.867-136.533-221.867-157.867 0-51.2 170.667-136.533 179.2-136.533 0 0 0 0 0 0 4.267 0 4.267-4.267 8.533-4.267 0 0 0-4.267 0-4.267s93.867-196.267 149.333-196.267c0 0 0 0 4.267 0 21.333 0 42.667 4.267 149.333 264.533 29.867 17.067 59.733 38.4 89.6 64 72.533 64 81.067 230.4 68.267 298.667zM857.6 785.067c8.533-51.2 0-145.067-25.6-200.533-136.533 21.333-157.867 89.6-179.2 170.667 55.467 17.067 140.8 29.867 204.8 29.867zM494.933 422.4c-4.267 0-4.267 0 0 0-4.267 4.267-4.267 4.267-4.267 4.267 0 4.267 0 8.533 0 8.533 4.267 102.4 55.467 217.6 110.933 277.333 21.333-72.533 55.467-153.6 187.733-183.467l-68.267-51.2c0 0 0 0 0 0-93.867-51.2-157.867-55.467-226.133-55.467zM341.333 507.733c21.333 17.067 59.733 38.4 102.4 59.733-12.8-34.133-21.333-76.8-21.333-115.2-29.867 21.333-59.733 42.667-81.067 55.467zM601.6 247.467c-17.067 25.6-46.933 64-64 98.133 42.667 4.267 89.6 17.067 128 34.133-21.333-55.467-46.933-106.667-64-132.267zM256 388.267c-12.8 12.8-34.133 12.8-46.933 0l-102.4-102.4c-12.8-12.8-12.8-34.133 0-46.933 4.267-4.267 12.8-8.533 21.333-8.533s17.067 4.267 21.333 8.533l106.667 102.4c8.533 12.8 8.533 34.133 0 46.933zM405.333 192l-106.667-102.4c-12.8-12.8-12.8-34.133 0-46.933 4.267-4.267 12.8-8.533 21.333-8.533s17.067 4.267 21.333 8.533l102.4 102.4c12.8 12.8 12.8 34.133 0 46.933s-25.6 12.8-38.4 0zM349.867 243.2c12.8 12.8 12.8 34.133 0 46.933s-34.133 12.8-46.933 0l-42.667-42.667c-12.8-12.8-12.8-34.133 0-46.933 12.8-4.267 17.067-8.533 25.6-8.533s17.067 4.267 21.333 8.533l42.667 42.667z" />
<glyph unicode="&#xe92f;" glyph-name="app_contact" d="M725.333 29.867h-426.667c-187.733 0-247.467 55.467-247.467 247.467v341.333c0 187.733 55.467 247.467 247.467 247.467h426.667c187.733 0 247.467-55.467 247.467-247.467v-341.333c0-187.733-59.733-247.467-247.467-247.467zM298.667 802.133c-153.6 0-179.2-29.867-179.2-183.467v-341.333c0-153.6 29.867-179.2 179.2-179.2h426.667c153.6 0 179.2 29.867 179.2 179.2v341.333c0 153.6-29.867 179.2-179.2 179.2h-426.667zM810.667 588.8h-213.333c-17.067 0-34.133 12.8-34.133 34.133 0 17.067 12.8 34.133 34.133 34.133h213.333c17.067 0 34.133-12.8 34.133-34.133s-17.067-34.133-34.133-34.133zM810.667 418.133h-170.667c-17.067 0-34.133 12.8-34.133 29.867s12.8 34.133 34.133 34.133h170.667c17.067 0 34.133-12.8 34.133-34.133 0-17.067-17.067-29.867-34.133-29.867zM810.667 243.2h-85.333c-17.067 0-34.133 12.8-34.133 34.133s12.8 34.133 34.133 34.133h85.333c17.067 0 34.133-12.8 34.133-34.133s-17.067-34.133-34.133-34.133zM362.667 448c-59.733 0-110.933 46.933-110.933 110.933s46.933 110.933 110.933 110.933 110.933-46.933 110.933-110.933-51.2-110.933-110.933-110.933zM362.667 601.6c-25.6 0-46.933-21.333-46.933-46.933s21.333-46.933 46.933-46.933 46.933 21.333 46.933 46.933-21.333 46.933-46.933 46.933zM512 230.4c-17.067 0-29.867 12.8-29.867 29.867-4.267 46.933-42.667 81.067-89.6 85.333-21.333 0-38.4 0-59.733 0-46.933-4.267-85.333-42.667-89.6-85.333 0-17.067-17.067-29.867-34.133-29.867s-29.867 17.067-29.867 34.133c8.533 76.8 68.267 136.533 145.067 145.067 25.6 4.267 46.933 4.267 72.533 0 76.8-8.533 136.533-68.267 145.067-145.067 4.267-17.067-8.533-29.867-29.867-34.133 0 0 0 0 0 0z" />
<glyph unicode="&#xe930;" glyph-name="app_ledger" d="M853.333 358.4h-388.267c-25.6 0-42.667 17.067-42.667 42.667v388.267c0 25.6 17.067 42.667 42.667 42.667h307.2c68.267 0 123.733-55.467 123.733-123.733v-307.2c0-25.6-21.333-42.667-42.667-42.667zM482.133 422.4h345.6v285.867c0 34.133-25.6 59.733-59.733 59.733h-285.867v-345.6zM268.8 648.533h-98.133c-25.6 0-42.667 17.067-42.667 42.667v17.067c0 68.267 55.467 123.733 123.733 123.733h29.867c17.067 0 29.867-12.8 29.867-29.867v-110.933c0-25.6-17.067-42.667-42.667-42.667zM192 712.533h55.467v55.467c-29.867 0-55.467-25.6-55.467-55.467zM268.8 354.133h-98.133c-25.6 0-42.667 17.067-42.667 42.667v98.133c0 25.6 17.067 42.667 42.667 42.667h98.133c25.6 0 42.667-17.067 42.667-42.667v-98.133c0-21.333-17.067-42.667-42.667-42.667zM192 418.133h55.467v55.467h-55.467v-55.467zM772.267 64h-17.067c-25.6 0-42.667 17.067-42.667 42.667v98.133c0 25.6 17.067 42.667 42.667 42.667h98.133c25.6 0 42.667-17.067 42.667-42.667v-17.067c0-64-55.467-123.733-123.733-123.733zM776.533 183.467v-55.467c29.867 0 51.2 25.6 55.467 55.467h-55.467zM563.2 64h-98.133c-25.6 0-42.667 17.067-42.667 42.667v98.133c0 25.6 17.067 42.667 42.667 42.667h98.133c25.6 0 42.667-17.067 42.667-42.667v-98.133c0-25.6-21.333-42.667-42.667-42.667zM482.133 128h55.467v55.467h-55.467v-55.467zM268.8 64h-17.067c-68.267 0-123.733 55.467-123.733 123.733v17.067c0 25.6 17.067 42.667 42.667 42.667h98.133c25.6 0 42.667-17.067 42.667-42.667v-98.133c0-25.6-17.067-42.667-42.667-42.667zM192 183.467c0-29.867 25.6-55.467 55.467-55.467v55.467h-55.467z" />
<glyph unicode="&#xe931;" glyph-name="app_google_drive" d="M964.267 345.6c-17.067 25.6-183.467 311.467-294.4 503.467 0 0 0 0 0 0-4.267 4.267-4.267 8.533-8.533 8.533 0 0 0 0 0 0s0 0 0 0c-4.267 4.267-8.533 4.267-12.8 4.267 0 0 0 0 0 0h-264.533c0 0 0 0 0 0-4.267 0-8.533 0-12.8-4.267 0 0 0 0 0 0s0 0 0 0c-8.533 0-12.8-4.267-12.8-8.533 0 0 0 0 0 0l-298.667-512c-4.267-8.533-4.267-21.333 0-34.133l128-213.333c0 0 0 0 0 0 4.267-4.267 4.267-8.533 8.533-8.533 0 0 0 0 0 0 4.267-4.267 8.533-4.267 17.067-4.267 0 0 0 0 0 0s0 0 0 0 0 0 0 0h597.333c0 0 0 0 0 0s0 0 0 0 0 0 0 0c4.267 0 8.533 0 12.8 4.267 0 0 0 0 0 0 4.267 4.267 8.533 4.267 8.533 8.533 0 0 0 0 0 0 42.667 72.533 115.2 196.267 123.733 213.333 4.267 4.267 8.533 12.8 8.533 21.333 8.533 8.533 4.267 12.8 0 21.333zM810.667 170.667l-68.267 119.467h140.8c-21.333-29.867-42.667-68.267-72.533-119.467zM140.8 290.133h140.8l-68.267-119.467-72.533 119.467zM384 768l89.6-153.6-153.6-260.267h-179.2l243.2 413.867zM439.467 802.133h145.067l-72.533-123.733-72.533 123.733zM512 550.4l115.2-196.267h-230.4l115.2 196.267zM358.4 290.133h307.2l89.6-149.333h-486.4l89.6 149.333zM887.467 354.133h-183.467l-153.6 260.267 89.6 153.6c29.867-46.933 72.533-128 119.467-204.8 64-106.667 102.4-170.667 128-209.067z" />
<glyph unicode="&#xe932;" glyph-name="app_home" d="M718.822 64h-413.647c-97.875 0-177.175 79.744-177.175 177.728v264.981c0 48.632 30.006 109.782 68.585 139.82l192.535 150.192c57.869 45.057 150.387 47.203 210.398 5.006l220.753-154.84c42.509-29.681 75.729-93.333 75.729-145.183v-260.335c0-97.626-79.3-177.37-177.178-177.37zM421.983 754.525l-192.536-150.192c-25.361-20.026-47.866-65.441-47.866-97.623v-264.981c0-68.305 55.368-124.087 123.594-124.087h413.647c68.228 0 123.597 55.428 123.597 123.729v260.335c0 34.327-24.649 81.888-52.868 101.198l-220.753 154.841c-40.725 28.608-107.878 27.177-146.815-3.218zM512.009 188.804c-15.744 0-28.8 13.056-28.8 28.8v115.2c0 15.744 13.056 28.8 28.8 28.8s28.8-13.056 28.8-28.8v-115.2c0-15.744-13.056-28.8-28.8-28.8z" />
<glyph unicode="&#xe933;" glyph-name="app_hidden_token" d="M672.004 291.409c-35.84-35.84-81.493-58.027-131.413-65.707v-56.747c0-17.92-14.507-32-32-32-17.92 0-32 14.080-32 32v55.040c-32 3.84-61.868 14.080-89.174 29.867l47.361 47.36c21.333-9.813 44.8-14.933 69.547-14.933 46.933 0 90.027 17.92 122.453 50.347 12.373 12.373 32.853 12.373 45.227 0 12.373-12.8 12.373-32.853 0-45.227zM654.507 572.597c-9.813-1.707-20.053 1.28-27.733 8.96-32.427 32.427-75.52 50.347-122.453 50.347-97.706 0-172.799-75.52-172.799-172.802 0-58.027 27.733-107.947 70.4-139.093l-45.653-45.653c-53.76 43.093-88.747 109.227-88.747 184.747 0 123.309 89.6 221.869 209.066 235.095v52.907c0 17.493 14.080 32 32 32 17.493 0 32-14.507 32-32v-54.613c49.92-7.68 95.573-29.867 131.413-65.707 7.68-7.68 10.667-18.347 8.96-27.733l-26.453-26.453zM139.518 68.689c-8.107 0-16.213 2.987-22.613 9.387-12.373 12.373-12.373 32.853 0 45.227l713.388 713.813c12.373 12.373 32.853 12.373 45.227 0s12.373-32.853 0-45.227l-713.388-713.813c-6.4-5.973-14.507-9.387-22.613-9.387zM200.96 203.52c-58.88 69.12-94.293 157.867-94.293 255.147 0 217.173 173.653 394.667 394.667 394.667 96.853 0 186.027-35.84 255.147-94.293l45.227 45.227c-80.64 69.973-185.6 113.067-300.373 113.067-256.853 0-458.667-206.507-458.667-458.667 0-114.773 43.093-219.733 113.067-300.373l45.227 45.227zM968.111 446.293c3.84-246.187-194.56-450.56-440.747-453.973-97.707-1.707-189.015 29.013-263.255 81.92-0.853 0.853-1.28 0.853-1.707 1.28-2.133 1.707-3.84 2.987-5.973 4.693-5.12 5.547-8.107 12.8-8.533 20.907 0 8.533 2.987 16.64 8.96 22.187 5.547 5.973 13.653 9.387 22.187 9.813 6.4 0 12.373-2.133 17.493-5.12 1.707-1.28 2.987-2.56 4.693-3.84 64.427-44.373 141.228-70.4 224.855-69.12 211.627 2.987 382.293 178.773 379.307 390.827-1.28 81.067-27.733 156.159-72.533 218.026-0.853 1.28-1.28 2.56-2.133 3.84-2.133 4.267-3.413 8.96-3.413 14.080-0.427 17.493 13.653 31.573 31.147 32 8.533 0 15.787-2.987 21.76-8.533 0 0 0 0 0.427-0.427 2.133-2.987 4.267-6.4 5.973-9.387l0.427-0.427c49.92-71.253 79.787-156.587 81.067-248.746z" />
<glyph unicode="&#xe934;" glyph-name="web_contact" d="M725.333 29.867h-426.667c-187.733 0-247.467 55.467-247.467 247.467v341.333c0 187.733 55.467 247.467 247.467 247.467h426.667c187.733 0 247.467-55.467 247.467-247.467v-341.333c0-187.733-59.733-247.467-247.467-247.467zM298.667 802.133c-153.6 0-179.2-29.867-179.2-183.467v-341.333c0-153.6 29.867-179.2 179.2-179.2h426.667c153.6 0 179.2 29.867 179.2 179.2v341.333c0 153.6-29.867 179.2-179.2 179.2h-426.667zM810.667 588.8h-213.333c-17.067 0-34.133 12.8-34.133 34.133 0 17.067 12.8 34.133 34.133 34.133h213.333c17.067 0 34.133-12.8 34.133-34.133s-17.067-34.133-34.133-34.133zM810.667 418.133h-170.667c-17.067 0-34.133 12.8-34.133 29.867s12.8 34.133 34.133 34.133h170.667c17.067 0 34.133-12.8 34.133-34.133 0-17.067-17.067-29.867-34.133-29.867zM810.667 243.2h-85.333c-17.067 0-34.133 12.8-34.133 34.133s12.8 34.133 34.133 34.133h85.333c17.067 0 34.133-12.8 34.133-34.133s-17.067-34.133-34.133-34.133zM362.667 448c-59.733 0-110.933 46.933-110.933 110.933s46.933 110.933 110.933 110.933 110.933-46.933 110.933-110.933-51.2-110.933-110.933-110.933zM362.667 601.6c-25.6 0-46.933-21.333-46.933-46.933s21.333-46.933 46.933-46.933 46.933 21.333 46.933 46.933-21.333 46.933-46.933 46.933zM512 230.4c-17.067 0-29.867 12.8-29.867 29.867-4.267 46.933-42.667 81.067-89.6 85.333-21.333 0-38.4 0-59.733 0-46.933-4.267-85.333-42.667-89.6-85.333 0-17.067-17.067-29.867-34.133-29.867s-29.867 17.067-29.867 34.133c8.533 76.8 68.267 136.533 145.067 145.067 25.6 4.267 46.933 4.267 72.533 0 76.8-8.533 136.533-68.267 145.067-145.067 4.267-17.067-8.533-29.867-29.867-34.133 0 0 0 0 0 0z" />
<glyph unicode="&#xe935;" glyph-name="app_asset_statistics" d="M302.933 273.067c-8.533 0-12.8 4.267-21.333 8.533-12.8 12.8-17.067 29.867-4.267 46.933l115.2 149.333c4.267 8.533 12.8 12.8 21.333 12.8s17.067 0 25.6-8.533l106.667-85.333 93.867 119.467c12.8 12.8 29.867 17.067 46.933 4.267 12.8-12.8 17.067-29.867 4.267-46.933l-115.2-145.067c-4.267-4.267-12.8-8.533-21.333-8.533s-17.067 0-25.6 8.533l-106.667 85.333-98.133-123.733c-4.267-12.8-12.8-17.067-21.333-17.067zM797.867 610.133c-59.733 0-106.667 46.933-106.667 106.667s46.933 106.667 106.667 106.667 106.667-46.933 106.667-106.667-46.933-106.667-106.667-106.667zM797.867 759.467c-25.6 0-42.667-17.067-42.667-42.667s17.067-42.667 42.667-42.667 42.667 17.067 42.667 42.667-21.333 42.667-42.667 42.667zM652.8 12.8h-337.067c-132.267 0-221.867 93.867-221.867 230.4v315.733c0 136.533 89.6 230.4 221.867 230.4h281.6c17.067 0 34.133-12.8 34.133-34.133s-12.8-34.133-34.133-34.133h-281.6c-93.867 0-157.867-64-157.867-166.4v-315.733c0-102.4 59.733-166.4 157.867-166.4h332.8c93.867 0 157.867 64 157.867 166.4v273.067c0 17.067 12.8 34.133 34.133 34.133s34.133-12.8 34.133-34.133v-273.067c0-136.533-89.6-226.133-221.867-226.133z" />
<glyph unicode="&#xe936;" glyph-name="app_buy_crypto" d="M776.533 866.133h-401.067c-132.267 0-183.467-38.4-192-153.6-106.667-17.067-128-81.067-128-187.733v-298.667c0-145.067 46.933-192 192-192h401.067c132.267 0 183.467 38.4 192 153.6 106.667 17.067 128 81.067 128 187.733v298.667c4.267 145.067-46.933 192-192 192zM213.333 648.533c0 0 0 0 0 0 8.533 0 21.333 0 34.133 0h401.067c110.933 0 128-17.067 128-128v-68.267h-657.067v68.267c0 106.667 17.067 123.733 93.867 128zM648.533 98.133h-401.067c-110.933 0-128 17.067-128 128v166.4h661.333v-174.933c-4.267-106.667-21.333-119.467-132.267-119.467zM904.533 375.467c0-89.6-12.8-115.2-64-123.733v268.8c0 145.067-46.933 192-192 192h-401.067c0 0 0 0 0 0 4.267 72.533 29.867 85.333 128 85.333h401.067c110.933 0 128-17.067 128-128v-294.4zM298.667 230.4h-76.8c-17.067 0-34.133-12.8-34.133-34.133s12.8-34.133 34.133-34.133h76.8c17.067 0 34.133 12.8 34.133 34.133s-17.067 34.133-34.133 34.133zM533.333 230.4h-145.067c-17.067 0-34.133-12.8-34.133-34.133s12.8-34.133 34.133-34.133h145.067c17.067 0 34.133 12.8 34.133 34.133s-12.8 34.133-34.133 34.133z" />
<glyph unicode="&#xe937;" glyph-name="app_wallet_connect" d="M721.067 443.733c0-17.067 12.8-29.867 29.867-29.867h12.8c17.067 0 29.867 12.8 29.867 29.867s-12.8 29.867-29.867 29.867h-12.8c-17.067 0-29.867-12.8-29.867-29.867zM691.2 832h-358.4c-136.533 0-251.733-106.667-247.467-247.467v-298.667c0-136.533 110.933-247.467 247.467-247.467h358.4c136.533 0 247.467 110.933 247.467 247.467v298.667c0 136.533-110.933 247.467-247.467 247.467zM878.933 354.133h-136.533c-46.933 0-81.067 38.4-81.067 81.067s38.4 81.067 81.067 81.067h136.533v-162.133zM691.2 98.133h-358.4c-106.667 0-187.733 81.067-187.733 187.733v298.667c0 0 0 0 0 0-4.267 102.4 81.067 187.733 187.733 187.733h358.4c106.667 0 187.733-81.067 187.733-187.733v-4.267h-136.533c-81.067 0-140.8-64-140.8-140.8s64-140.8 140.8-140.8h136.533v-12.8c0-106.667-81.067-187.733-187.733-187.733zM247.467 576c-17.067 0-29.867-12.8-34.133-29.867s12.8-34.133 29.867-34.133c119.467-12.8 213.333-106.667 226.133-226.133 0-17.067 17.067-29.867 34.133-29.867s29.867 17.067 29.867 34.133c-17.067 149.333-136.533 268.8-285.867 285.867zM251.733 448c-17.067 0-34.133-8.533-38.4-25.6s8.533-34.133 25.6-38.4c51.2-8.533 93.867-51.2 102.4-102.4 4.267-17.067 21.333-29.867 38.4-25.6s29.867 21.333 25.6 38.4c-17.067 76.8-76.8 136.533-153.6 153.6z" />
<glyph unicode="&#xe938;" glyph-name="app_tokens" d="M512 842.667c-221.052 0-394.667-177.464-394.667-394.667 0-216.994 177.673-394.667 394.667-394.667s394.667 177.673 394.667 394.667c0 216.994-177.673 394.667-394.667 394.667zM53.333 448c0 252.131 201.852 458.667 458.667 458.667 252.339 0 458.667-206.327 458.667-458.667s-206.327-458.667-458.667-458.667c-252.34 0-458.667 206.327-458.667 458.667zM512 768c17.673 0 32-14.327 32-32v-84.649c0-17.673-14.327-11.351-32-11.351s-32-6.322-32 11.351v84.649c0 17.673 14.327 32 32 32zM512 256c17.673 0 32 7.484 32-10.189v-87.945c0-17.673-14.327-32-32-32s-32 14.327-32 32v87.945c0 17.673 14.327 10.189 32 10.189zM507.733 620.8c-97.527 0-172.8-75.273-172.8-172.8 0-97.097 79.104-172.8 172.8-172.8 47.027 0 90.074 17.993 122.441 50.359 12.497 12.497 32.755 12.497 45.252 0s12.497-32.755 0-45.252c-44.433-44.437-103.787-69.107-167.693-69.107-128.171 0-236.8 103.492-236.8 236.8 0 132.873 103.927 236.8 236.8 236.8 63.906 0 123.26-24.672 167.693-69.106 12.497-12.497 12.497-32.758 0-45.255s-32.755-12.497-45.252 0c-32.367 32.367-75.413 50.361-122.441 50.361z" />
<glyph unicode="&#xe939;" glyph-name="app_staking" d="M590.135 744.18l243.443 0.209c11.439 1.42 19.964 11.232 19.776 22.754-0.201 12.457-10.466 22.389-22.921 22.187l-243.413-0.211c-11.418-1.42-19.934-11.206-19.767-22.712 0.179-12.457 10.428-22.408 22.882-22.227zM314.406 789.332c-102.471 0.35-186.054-82.534-186.404-185.006 0-29.726 6.644-57.701 19.235-82.534-12.24-24.478-19.235-52.109-19.235-81.135 0-29.73 6.644-57.707 19.235-82.539-12.24-24.478-19.235-52.109-19.235-81.485-0.35-102.818 82.885-186.052 185.354-186.752 102.469 0 185.704 82.884 186.054 185.007 0 29.726-6.643 58.048-19.234 82.88 12.241 24.482 18.884 52.113 19.234 81.139 0 29.73-6.643 58.052-19.234 82.884 12.241 24.482 18.884 51.762 19.234 80.784 0.35 102.822-82.534 186.406-185.004 186.756zM314.055 141.641c-74.491-0.35-135.344 60.151-135.693 134.993 0 11.191 1.398 21.683 3.846 32.175 33.574-33.57 80.087-54.558 131.147-54.908 51.411 0 98.273 20.988 131.846 54.908 2.449-9.792 3.849-20.284 3.849-31.125 0.35-74.842-60.152-135.693-134.994-136.043zM444.501 407.437v-0.35c-4.194-17.489-12.241-33.929-23.080-47.919-24.831-32.171-63.65-53.158-107.366-53.508-44.066-0.35-83.235 20.638-107.716 53.508 0 0-0.35 0.35 0 0.35-11.192 13.99-19.235 30.080-23.781 47.919-2.799 10.487-4.197 21.675-4.197 33.22 0 10.842 1.048 21.683 3.847 31.821 13.289-12.932 27.977-24.128 44.416-32.87 25.879-13.99 55.255-21.683 86.731-22.033 31.826 0 61.552 8.043 87.782 22.033 16.436 8.742 31.128 19.938 44.064 32.87 2.449-10.138 3.849-20.279 3.849-30.771 0-11.891-1.399-23.083-4.548-34.27zM444.851 571.454c-4.544-17.836-12.591-34.272-23.43-48.612-24.831-32.175-63.65-53.158-107.366-53.508-44.066-0.35-83.235 20.983-108.066 53.858-10.842 13.99-18.884 30.426-23.431 48.262-2.799 10.494-4.197 21.683-4.197 32.873-0.35 74.841 60.152 135.693 134.993 136.044 74.842 0 135.345-60.502 135.695-134.993 0-11.543-1.399-23.079-4.198-33.923zM895.991 438.575c0.35 102.822-82.534 186.407-185.003 186.757-102.473 0.35-186.057-82.534-186.406-185.008 0-29.726 6.647-57.698 19.234-82.534-12.237-24.478-19.234-52.109-19.234-81.131 0-29.73 6.647-57.707 19.234-82.543 8.742-18.53 20.983-34.97 34.974-49.306 33.574-33.574 80.085-54.558 131.149-54.908 51.409 0 98.27 20.983 131.844 54.908 14.34 14.336 26.231 30.775 34.974 48.956 12.241 24.486 18.884 52.113 19.234 81.139 0 29.73-6.643 58.057-19.234 82.884 12.241 24.486 18.884 51.763 19.234 80.785zM841.084 243.435v-0.35c-4.194-17.485-12.241-33.924-23.078-47.915-24.832-32.175-63.65-53.163-107.366-53.513-44.066-0.35-83.234 20.638-107.716 53.513 0 0-0.35 0.35 0 0.35-11.191 13.986-19.234 30.080-23.782 47.915-2.799 10.492-4.198 21.679-4.198 33.225 0 10.837 1.050 21.679 3.849 31.821 13.291-12.937 27.977-24.128 44.416-32.875 25.877-13.986 55.253-21.683 86.733-22.033 31.825 0 61.551 8.047 87.778 22.033 16.439 8.747 31.125 19.938 44.066 32.875 2.449-10.142 3.849-20.284 3.849-30.771 0-11.895-1.399-23.083-4.548-34.274zM841.434 407.454c-4.544-17.835-12.591-34.274-23.428-48.61-24.832-32.179-63.65-53.163-107.366-53.513-44.066-0.35-83.234 20.983-108.066 53.862-10.842 13.986-18.884 30.426-23.433 48.26-2.799 10.492-4.198 21.683-4.198 32.87-0.35 74.842 60.151 135.695 134.997 136.046 74.842 0 135.343-60.5 135.693-134.992 0-11.546-1.399-23.078-4.198-33.924z" />
<glyph unicode="&#xe93a;" glyph-name="app_moonbay" d="M405.333 21.333c-64 0-123.733 17.067-179.2 55.467-51.2 34.133-93.867 85.333-119.467 145.067-21.333 55.467-25.6 119.467-17.067 183.467 12.8 64 42.667 119.467 89.6 162.133 42.667 42.667 102.4 76.8 162.133 85.333 64 12.8 128 4.267 183.467-17.067 59.733-25.6 106.667-64 145.067-119.467 34.133-51.2 55.467-115.2 55.467-179.2 0-42.667-8.533-85.333-25.6-123.733s-38.4-72.533-68.267-102.4c-29.867-29.867-64-51.2-102.4-68.267-38.4-12.8-81.067-21.333-123.733-21.333zM405.333 597.333c-17.067 0-34.133 0-51.2-4.267-51.2-8.533-93.867-34.133-132.267-68.267-34.133-34.133-59.733-81.067-68.267-132.267s-4.267-102.4 12.8-149.333c21.333-46.933 51.2-85.333 93.867-115.2 68.267-46.933 162.133-55.467 238.933-25.6 29.867 12.8 59.733 29.867 81.067 55.467 25.6 25.6 42.667 51.2 55.467 81.067s21.333 64 21.333 98.133c0 51.2-12.8 98.133-42.667 140.8s-68.267 76.8-115.2 93.867c-25.6 17.067-59.733 25.6-93.867 25.6zM806.4 610.133c-17.067 0-34.133 4.267-51.2 8.533-17.067 8.533-29.867 17.067-42.667 29.867s-21.333 25.6-29.867 42.667c-8.533 17.067-8.533 34.133-8.533 51.2 0 25.6 8.533 51.2 21.333 72.533s34.133 38.4 59.733 46.933c25.6 8.533 51.2 12.8 76.8 8.533s46.933-17.067 68.267-34.133c17.067-17.067 29.867-42.667 34.133-68.267s4.267-51.2-8.533-76.8c-8.533-25.6-25.6-42.667-46.933-59.733-21.333-12.8-46.933-21.333-72.533-21.333zM806.4 810.667c-8.533 0-17.067 0-25.6-4.267-12.8-4.267-21.333-12.8-29.867-25.6s-12.8-25.6-12.8-38.4c0-8.533 0-17.067 4.267-25.6s8.533-17.067 12.8-21.333c4.267-4.267 12.8-12.8 21.333-12.8 21.333-8.533 42.667-4.267 64 4.267 12.8 8.533 21.333 17.067 25.6 29.867s8.533 25.6 4.267 38.4c0 12.8-4.267 25.6-17.067 34.133-8.533 8.533-21.333 17.067-34.133 17.067-4.267 4.267-8.533 4.267-12.8 4.267z" />
<glyph unicode="&#xe93b;" glyph-name="app_detect_token" d="M938.667 477.867h-76.8c-17.067 170.667-149.333 302.933-320 320v76.8c0 17.067-12.8 34.133-34.133 34.133s-29.867-17.067-29.867-34.133v-76.8c-170.667-17.067-302.933-149.333-320-320h-72.533c-17.067 0-34.133-12.8-34.133-34.133s12.8-34.133 34.133-34.133h76.8c17.067-170.667 149.333-302.933 320-320v-68.267c0-17.067 12.8-34.133 34.133-34.133s34.133 12.8 34.133 34.133v76.8c170.667 17.067 302.933 149.333 320 320h68.267c17.067 0 34.133 12.8 34.133 34.133s-17.067 25.6-34.133 25.6zM512 162.133c-157.867 0-290.133 128-290.133 285.867s128 290.133 290.133 290.133c157.867 0 290.133-128 290.133-290.133s-132.267-285.867-290.133-285.867zM512 605.867c-89.6 0-162.133-72.533-162.133-162.133s72.533-157.867 162.133-157.867c89.6 0 162.133 72.533 162.133 157.867s-72.533 162.133-162.133 162.133zM512 354.133c-51.2 0-93.867 42.667-93.867 93.867s42.667 93.867 93.867 93.867c51.2 0 93.867-42.667 93.867-93.867s-42.667-93.867-93.867-93.867z" />
<glyph unicode="&#xe93c;" glyph-name="poolSize" d="M512.015 36.887c-227.044 0-411.098 184.055-411.098 411.098 0 227.044 184.054 411.098 411.098 411.098 227.042 0 411.098-184.054 411.098-411.098 0-227.042-184.055-411.098-411.098-411.098zM512.015-5.779c250.607 0 453.764 203.157 453.764 453.764s-203.157 453.765-453.764 453.765c-250.607 0-453.765-203.158-453.765-453.765s203.158-453.764 453.765-453.764zM512.017 100.425c-191.951 0-347.559 155.607-347.559 347.558s155.608 347.559 347.559 347.559c191.951 0 347.558-155.608 347.558-347.559s-155.607-347.558-347.558-347.558zM512.017 79.091c203.733 0 368.892 165.158 368.892 368.892s-165.158 368.892-368.892 368.892c-203.733 0-368.892-165.159-368.892-368.892s165.159-368.892 368.892-368.892zM533.333 877.917v-64h-42.667v64h42.667zM533.333 83.625v-64h-42.667v64h42.667zM941.041 427.541h-64v42.667h64v-42.667zM146.75 427.541h-64v42.667h64v-42.667zM800.297 130.451l-45.254 45.254 30.17 30.17 45.254-45.254-30.17-30.17zM238.839 689.222l-45.256 45.254 30.171 30.169 45.254-45.254-30.17-30.17zM193.583 160.599l45.254 45.254 30.17-30.17-45.254-45.254-30.169 30.17zM755.042 719.371l45.254 45.254 30.172-30.17-45.257-45.257-30.17 30.172zM609.634 421.498c2.818-5.195 1.41-2.701 0 0-1.609 2.91-3.017 5.406 0 0-9.655 17.461-26.353 28.478-43.857 35.543-11.669 4.781-23.74 8.107-36.011 11.017l-42.249 12.681c-4.83 1.455-9.457 3.117-13.481 4.781-4.828 2.078-9.455 4.365-13.679 7.275-3.823 2.701-7.445 6.027-9.254 10.601-1.811 4.781-2.214 10.391-1.611 15.381 0.403 4.988 2.214 9.769 5.030 13.926 7.443 11.017 20.721 16.836 32.994 19.537 0 0 8.651 3.951 42.249-2.078 10.259-1.871 20.521-5.197 28.768-11.639 3.823-2.91 7.243-6.652 9.858-10.81 1.408-2.078 2.615-4.365 3.42-6.859 0.804-2.287 1.408-4.781 2.214-7.275 3.017-7.9 10.46-13.51 18.709-13.926 8.45-0.416 16.497 4.572 19.917 12.471 1.811 3.742 2.415 8.107 1.811 12.471-0.403 2.701-1.207 5.197-2.012 7.691-0.806 2.701-1.811 5.404-3.019 7.898-4.023 9.355-9.858 17.875-16.898 24.943-14.485 15.59-34.202 24.111-54.522 27.853-2.816 0.416-5.431 1.039-8.247 1.248v24.111c0 8.314-4.83 16.213-12.273 19.746s-16.497 2.078-22.733-3.533c-4.427-4.158-7.042-10.187-7.042-16.213v-24.111c-20.721-3.119-41.242-11.226-56.734-25.982-7.243-6.861-13.077-15.174-17.301-24.527-4.427-9.771-6.236-20.578-6.236-31.388 0-10.601 2.012-21.408 6.436-31.179 4.226-9.146 10.865-16.836 18.711-23.072 15.893-12.885 35.81-19.537 55.123-24.527l42.852-9.146c9.858-2.701 19.716-5.611 28.971-10.601 4.224-2.285 8.247-4.988 11.467-8.521 3.019-3.326 4.828-7.484 5.634-11.849 1.609-8.314 0.804-17.252-3.219-24.734-8.45-15.381-26.758-21.41-42.852-23.281-26.959-2.287-42.852 2.287-42.852 2.287-9.858 2.91-19.313 7.691-26.756 14.965-3.622 3.533-6.639 7.691-9.254 12.265-1.207 2.285-2.415 4.572-3.219 7.066-0.806 2.494-1.408 4.99-2.214 7.484-2.615 8.107-9.858 14.133-18.106 14.756-8.45 0.832-16.698-3.949-20.521-11.639-1.811-3.742-2.615-8.107-2.212-12.262 0.201-2.494 1.005-4.99 1.609-7.275 0.804-2.703 1.609-5.197 2.615-7.9 3.823-9.769 9.254-18.914 15.893-27.021 13.478-16.213 31.787-27.021 51.503-32.634 3.62-1.039 7.243-1.871 10.863-2.494v-25.359c0-8.314 4.83-16.213 12.273-19.746s16.497-2.078 22.733 3.533c4.427 4.158 7.042 10.187 7.042 16.213v23.072c21.124 1.871 42.449 8.107 59.349 21.617 16.094 12.887 26.756 31.802 28.971 52.796 1.408 15.797-1.007 32.425-8.653 46.351z" />
</font>
</defs>
</svg>
