<svg id="Layer_1" data-name="Layer 1" xmlns="http://www.w3.org/2000/svg" xmlns:xlink="http://www.w3.org/1999/xlink" viewBox="0 0 266.658 70.072"><defs><linearGradient id="New_Gradient_Swatch_2" x1="177.124" y1="52.539" x2="177.124" y2="17.532" gradientUnits="userSpaceOnUse"><stop offset="0" stop-color="#cda146"/><stop offset="1" stop-color="#f1d961"/></linearGradient><linearGradient id="New_Gradient_Swatch_1" x1="66.484" y1="3.572" x2="4.54" y2="65.516" gradientUnits="userSpaceOnUse"><stop offset="0" stop-color="#f1d961"/><stop offset="1" stop-color="#cda146"/></linearGradient></defs><title>Coin98</title><path d="M136.139,46.122a12.557,12.557,0,0,1-3.96-2.679,13.24,13.24,0,0,1-2.676-3.959A12.445,12.445,0,0,1,141,22.174a12.781,12.781,0,0,1,4.868.971,13.068,13.068,0,0,1,3.944,2.676,12.068,12.068,0,0,1,2.645,3.949,12.323,12.323,0,0,1,0,9.723,12.7,12.7,0,0,1-2.651,3.961,13.181,13.181,0,0,1-3.96,2.678,12.9,12.9,0,0,1-4.865.956,12.527,12.527,0,0,1-4.847-.966M134.359,18.9a17.016,17.016,0,0,0-9.093,9.09,17.234,17.234,0,0,0,0,13.287,17.029,17.029,0,0,0,9.095,9.093,17.2,17.2,0,0,0,13.283,0,17.005,17.005,0,0,0,9.094-9.093A17.228,17.228,0,0,0,156.74,28a17.05,17.05,0,0,0-9.1-9.1,17.315,17.315,0,0,0-13.281,0m-36.331-.01a17.643,17.643,0,0,0-5.444,3.659,17.309,17.309,0,0,0-3.652,5.438,17.126,17.126,0,0,0,0,13.3,17.326,17.326,0,0,0,3.649,5.432,17.521,17.521,0,0,0,5.435,3.662,17.234,17.234,0,0,0,6.648,1.327,17.1,17.1,0,0,0,12.067-4.979,17.405,17.405,0,0,0,3.666-5.455c.185-.442.356-.9.509-1.371h-4.965a12.856,12.856,0,0,1-2.47,3.557,12.219,12.219,0,0,1-8.826,3.634,12.35,12.35,0,0,1-8.809-3.645,13.245,13.245,0,0,1-2.676-3.962,12.764,12.764,0,0,1,.012-9.713,12.427,12.427,0,0,1,11.492-7.594,12.679,12.679,0,0,1,4.87.978,13.321,13.321,0,0,1,3.956,2.669,12.537,12.537,0,0,1,2.465,3.564h4.953c-.148-.473-.321-.938-.5-1.387a17.106,17.106,0,0,0-9.1-9.1,17.334,17.334,0,0,0-13.279-.01M163.214,51.7h4.61V17.571h-4.61Zm56.943-22.1a8.144,8.144,0,1,1,16.288,0,8.145,8.145,0,0,1-16.288,0m-4.146.065c0,6.661,5.5,11.875,12.506,11.875H231.3l-5.437,10.313H230.5l8.458-16.213a13.107,13.107,0,0,0,1.692-6.1,12.323,12.323,0,0,0-24.64.125M248.6,41.6a7.113,7.113,0,0,1,14.224,0,7.112,7.112,0,1,1-14.224,0m2.369-15.618a4.805,4.805,0,0,1,4.68-4.8,4.8,4.8,0,0,1,0,9.6,4.805,4.805,0,0,1-4.68-4.8m-3.829,0a8.566,8.566,0,0,0,1.664,5.179l.949,1.267-1.211,1.027a10.581,10.581,0,0,0-3.779,8.145,10.946,10.946,0,0,0,21.891,0,10.579,10.579,0,0,0-3.842-8.215l-1.236-1.039.993-1.277a8.169,8.169,0,0,0,1.709-5.087,8.57,8.57,0,0,0-17.138,0m-42.2-8.408-.006,26.479a2.251,2.251,0,0,1-2.2,2.524,2.923,2.923,0,0,1-2.506-1.719L189.7,22.178a7.331,7.331,0,0,0-6.877-4.607A7.393,7.393,0,0,0,178.1,19.2a2.264,2.264,0,0,0-.177.145,6.114,6.114,0,0,0-2.231,4.758V51.7h4.886V24.823a2.263,2.263,0,0,1,2.262-2.377,2.735,2.735,0,0,1,2.451,1.76l.095.224c2.477,5.476,8.016,17.518,11.258,23.9,1.091,2.145,2.954,3.109,6.049,3.125a7.588,7.588,0,0,0,4.828-1.624,5.019,5.019,0,0,0,2.31-4.56v-27.7Z" fill="url(#New_Gradient_Swatch_2)"/><rect width="70.056" height="70.056" rx="12.791" fill="url(#New_Gradient_Swatch_1)"/><path d="M23.585,17.489a10.941,10.941,0,1,0,10.95,10.95A10.956,10.956,0,0,0,23.585,17.489Zm0,17.4a6.456,6.456,0,1,1,6.456-6.455A6.477,6.477,0,0,1,23.585,34.894Zm32.254-8.043a9.21,9.21,0,0,1-1.15,4.477,12.567,12.567,0,0,0-3.928-2.165,4.927,4.927,0,0,0,.584-2.312,4.871,4.871,0,0,0-9.742,0,4.723,4.723,0,0,0,.584,2.312,12.567,12.567,0,0,0-3.928,2.165,9.347,9.347,0,0,1,8.218-13.839A9.372,9.372,0,0,1,55.839,26.851Zm-9.362,3.788a10.941,10.941,0,1,0,10.932,10.95A10.963,10.963,0,0,0,46.477,30.639Zm0,17.388a6.447,6.447,0,1,1,6.455-6.438A6.455,6.455,0,0,1,46.477,48.027Zm-13.53-4.868a9.365,9.365,0,0,1-18.73,0h4.494a4.871,4.871,0,1,0,9.742,0Z" fill="#252525"/></svg>